<svg width="644" height="523" viewBox="0 0 644 523" fill="none" xmlns="http://www.w3.org/2000/svg">
<g clip-path="url(#clip0_55_31004)">
<rect x="21" y="0.5" width="623" height="522" rx="24" fill="#F6F6F6"/>
<path d="M271.353 362.52C271.353 362.52 258.315 357.076 256.358 354.018C254.401 350.959 245.99 338.077 242.957 337.572C231.786 335.693 201.278 336.833 191.04 342.341C185.428 345.361 191.338 367.652 196.483 372.875C201.628 378.097 238.409 379.199 244.357 377.994C250.306 376.788 254.725 370.697 254.725 370.697L269.357 374.767L271.353 362.52Z" fill="#6C6A6A"/>
<path d="M274.968 346.115C274.968 346.115 265.066 347.553 262.668 349.627C260.271 351.7 252.754 368.328 253.234 374.082C253.713 379.836 259.791 385.746 259.791 385.746L274.968 346.115Z" fill="#6C6A6A"/>
<path opacity="0.1" d="M274.968 346.115C274.968 346.115 265.066 347.553 262.668 349.627C260.271 351.7 252.754 368.328 253.234 374.082C253.713 379.836 259.791 385.746 259.791 385.746L274.968 346.115Z" fill="black"/>
<path d="M275.28 496.006H210.687C202.635 496.006 196.107 502.533 196.107 510.586V676.978C196.107 685.03 202.635 691.558 210.687 691.558H275.28C283.332 691.558 289.86 685.03 289.86 676.978V510.586C289.86 502.533 283.332 496.006 275.28 496.006Z" fill="#263238"/>
<path d="M227.11 439.506C227.11 439.506 205.376 450.587 200.257 460.812C195.137 471.037 200.257 576.738 200.257 584.838C200.257 592.938 216.003 645.75 218.997 651.323C221.991 656.896 263.333 663.259 263.333 663.259L227.11 439.506Z" fill="#6C6A6A"/>
<path opacity="0.1" d="M227.11 439.506C227.11 439.506 205.376 450.587 200.257 460.812C195.137 471.037 200.257 576.738 200.257 584.838C200.257 592.938 216.003 645.75 218.997 651.323C221.991 656.896 263.333 663.259 263.333 663.259L227.11 439.506Z" fill="black"/>
<path d="M808.585 600.607C808.585 598.468 810.866 450 810.218 447.109C809.57 444.219 803.505 424.106 800.796 419.79C798.087 415.474 773.787 384.798 773.152 382.867C758.197 338.039 716.4 256.016 710.011 250.248C704.032 244.933 696.657 241.438 688.757 240.179C682.368 239.388 595.898 236.226 515.002 236.226C434.106 236.226 347.637 239.414 341.26 240.204C333.355 241.461 325.975 244.956 319.993 250.274C313.591 256.041 271.795 338.065 256.865 382.893C256.23 384.811 231.93 415.5 229.208 419.816C226.487 424.132 220.408 444.271 219.773 447.135C219.138 450 221.432 598.494 221.432 600.633C221.432 602.771 218.451 612.569 218.659 615.329C218.866 618.09 228.249 657.747 232.072 661.778C235.896 665.808 312.632 669.022 317.323 669.022C322.015 669.022 336.763 660.728 339.485 660.093C342.206 659.458 496.171 659.872 515.002 659.872C533.833 659.872 687.759 659.432 690.519 660.093C693.28 660.754 708.002 669.022 712.668 669.022C717.334 669.022 794.083 665.834 797.906 661.778C801.729 657.721 811.138 618.103 811.345 615.329C811.553 612.556 808.585 602.732 808.585 600.607ZM515.002 385.744C384.028 385.744 268.529 380.69 268.529 380.69C292.168 321.45 323.09 259.217 326.486 256.651C329.881 254.085 342.038 249.613 345.446 248.771C359.962 245.142 463.719 244.507 515.002 244.507C566.285 244.507 670.03 245.142 684.545 248.771C687.966 249.613 700.097 254.097 703.518 256.651C706.94 259.204 737.836 321.45 761.475 380.69C761.475 380.69 645.976 385.744 515.002 385.744Z" fill="#6C6A6A"/>
<path opacity="0.5" d="M761.476 380.693C761.476 380.693 645.977 385.747 515.003 385.747C384.029 385.747 268.53 380.693 268.53 380.693C292.169 321.453 323.091 259.22 326.487 256.654C329.882 254.087 342.039 249.616 345.447 248.774C359.963 245.145 463.72 244.51 515.003 244.51C566.286 244.51 670.031 245.145 684.546 248.774C687.967 249.616 700.098 254.1 703.519 256.654C706.941 259.207 737.837 321.453 761.476 380.693Z" fill="#DBDBDB"/>
<path d="M468.615 332.014H323.774C321.544 332.014 319.388 332.808 317.692 334.255C315.996 335.701 314.872 337.705 314.52 339.906L310.399 365.93C310.185 367.267 310.264 368.634 310.63 369.937C310.996 371.241 311.641 372.449 312.519 373.479C313.398 374.509 314.489 375.337 315.719 375.904C316.948 376.471 318.286 376.765 319.639 376.764H472.749C474.103 376.765 475.44 376.471 476.67 375.904C477.899 375.337 478.99 374.509 479.869 373.479C480.747 372.449 481.392 371.241 481.758 369.937C482.124 368.634 482.203 367.267 481.989 365.93L477.868 339.906C477.519 337.704 476.395 335.699 474.698 334.252C473.002 332.805 470.844 332.011 468.615 332.014Z" fill="#6C6A6A"/>
<path d="M440.128 301.848H352.26C349.504 301.848 347.27 304.082 347.27 306.837V337.125C347.27 339.88 349.504 342.114 352.26 342.114H440.128C442.884 342.114 445.118 339.88 445.118 337.125V306.837C445.118 304.082 442.884 301.848 440.128 301.848Z" fill="#6C6A6A"/>
<g opacity="0.4">
<path d="M468.616 332.02H323.775C321.546 332.019 319.39 332.814 317.694 334.261C315.998 335.707 314.873 337.711 314.522 339.912L310.4 365.936C310.187 367.273 310.265 368.64 310.632 369.943C310.998 371.247 311.642 372.455 312.521 373.485C313.399 374.515 314.491 375.342 315.72 375.909C316.949 376.477 318.287 376.77 319.641 376.77H472.75C474.104 376.77 475.442 376.477 476.671 375.909C477.9 375.342 478.992 374.515 479.87 373.485C480.749 372.455 481.393 371.247 481.76 369.943C482.126 368.64 482.204 367.273 481.991 365.936L477.869 339.912C477.52 337.71 476.396 335.705 474.7 334.258C473.003 332.81 470.846 332.017 468.616 332.02Z" fill="black"/>
<path d="M440.128 301.851H352.259C349.503 301.851 347.269 304.085 347.269 306.841V337.128C347.269 339.884 349.503 342.117 352.259 342.117H440.128C442.883 342.117 445.117 339.884 445.117 337.128V306.841C445.117 304.085 442.883 301.851 440.128 301.851Z" fill="black"/>
</g>
<path d="M706.225 332.014H561.384C559.154 332.011 556.997 332.805 555.3 334.252C553.604 335.699 552.48 337.704 552.131 339.906L548.009 365.93C547.796 367.267 547.875 368.634 548.241 369.937C548.607 371.241 549.251 372.449 550.13 373.479C551.008 374.509 552.1 375.337 553.329 375.904C554.558 376.471 555.896 376.765 557.25 376.764H710.359C711.713 376.765 713.051 376.471 714.28 375.904C715.509 375.337 716.601 374.509 717.48 373.479C718.358 372.449 719.003 371.241 719.369 369.937C719.735 368.634 719.814 367.267 719.6 365.93L715.479 339.906C715.127 337.705 714.002 335.701 712.306 334.255C710.61 332.808 708.454 332.014 706.225 332.014Z" fill="#6C6A6A"/>
<path d="M677.741 301.848H589.873C587.117 301.848 584.883 304.082 584.883 306.837V337.125C584.883 339.88 587.117 342.114 589.873 342.114H677.741C680.497 342.114 682.731 339.88 682.731 337.125V306.837C682.731 304.082 680.497 301.848 677.741 301.848Z" fill="#6C6A6A"/>
<g opacity="0.4">
<path d="M706.224 332.02H561.383C559.154 332.017 556.996 332.81 555.3 334.258C553.603 335.705 552.479 337.71 552.13 339.912L548.009 365.936C547.795 367.273 547.874 368.64 548.24 369.943C548.606 371.247 549.25 372.455 550.129 373.485C551.008 374.515 552.099 375.342 553.328 375.909C554.558 376.477 555.895 376.77 557.249 376.77H710.359C711.712 376.77 713.05 376.477 714.279 375.909C715.509 375.342 716.6 374.515 717.479 373.485C718.357 372.455 719.002 371.247 719.368 369.943C719.734 368.64 719.813 367.273 719.599 365.936L715.478 339.912C715.126 337.711 714.002 335.707 712.306 334.261C710.61 332.814 708.454 332.019 706.224 332.02Z" fill="black"/>
<path d="M677.736 301.851H589.867C587.112 301.851 584.878 304.085 584.878 306.841V337.128C584.878 339.884 587.112 342.117 589.867 342.117H677.736C680.492 342.117 682.726 339.884 682.726 337.128V306.841C682.726 304.085 680.492 301.851 677.736 301.851Z" fill="black"/>
</g>
<g opacity="0.3">
<path d="M456.523 244.765L318.784 382.503C302.014 381.972 288.795 381.492 280.125 381.207L415.997 245.296C429.139 245.05 442.993 244.882 456.523 244.765Z" fill="white"/>
<path d="M727.841 303.62L647.191 384.218C634.296 384.503 620.636 384.775 606.393 384.995L714.725 276.663C718.471 284.102 722.968 293.252 727.841 303.62Z" fill="white"/>
<path d="M403.128 245.541L268.888 379.78C270.275 376.332 271.675 372.859 273.1 369.412L396.817 245.696L403.128 245.541Z" fill="white"/>
<path d="M596.27 244.996L455.823 385.417L449.731 385.352L590.166 244.931L596.27 244.996Z" fill="white"/>
<path d="M649.588 246.186L510.034 385.738H496.336L636.304 245.771C640.917 245.901 645.376 246.03 649.588 246.186Z" fill="white"/>
</g>
<path d="M761.476 380.689C761.476 380.689 645.977 385.743 515.003 385.743C384.029 385.743 268.53 380.689 268.53 380.689C270.759 375.116 273.053 369.66 275.36 364.347C301.941 365.409 402.795 369.116 515.003 369.116C627.211 369.116 728.065 365.409 754.659 364.347C756.966 369.652 759.239 375.099 761.476 380.689Z" fill="#263238"/>
<path opacity="0.1" d="M268.529 380.692C263.15 393.25 255.776 404.992 248.298 416.384C248.091 416.682 247.702 417.291 247.507 417.589C247.106 418.885 248.622 421.633 249.413 423.032C250.553 425.08 251.901 427.037 253.223 429.059C249.996 426.467 242.492 420.194 245.097 415.593C251.6 403.133 259.458 391.429 268.529 380.692Z" fill="black"/>
<path opacity="0.1" d="M806.368 477.277C806.368 479.985 806.251 495.524 804.139 496.794C798.242 500.332 772.192 508.575 755.94 511.569C679.891 525.604 569.316 533.51 515.001 532.603C460.673 533.51 350.111 525.604 274.062 511.569C257.823 508.575 231.773 500.332 225.863 496.794C223.751 495.498 223.634 479.947 223.634 477.277C223.634 474.607 241.778 438.397 245.096 437.529C248.414 436.66 285.998 457.979 348.919 469.306C413.446 480.97 515.001 481.217 515.001 481.217C515.001 481.217 616.569 480.919 681.083 469.306C744.004 457.979 781.549 438.527 784.919 439.499C788.289 440.471 806.368 474.685 806.368 477.277Z" fill="black"/>
<path opacity="0.5" d="M804.14 496.846C782.432 508.419 758.301 514.471 734.156 518.606C710.059 522.995 685.867 526.74 661.58 529.842C612.954 535.933 564.082 540.845 514.99 540.78C435.35 540.106 355.906 530.153 277.822 515.093C259.748 511.423 242.265 505.283 225.865 496.846C242.626 504.182 260.25 509.364 278.314 512.268C356.657 523.582 435.804 532.693 515.003 533.121C563.719 533.393 612.423 528.74 660.906 523.932C685.167 521.34 709.416 518.437 733.573 514.951C745.626 513.175 757.756 511.815 769.537 508.639C781.318 505.464 793.085 502.017 804.14 496.872V496.846Z" fill="white"/>
<path d="M258.913 430.377C272.028 431.595 334.301 470.267 336.919 473.443C339.537 476.618 345.861 508.603 341.934 511.739C338.008 514.875 290.95 513.268 276.771 510.987C262.593 508.706 233.304 500.775 226.707 495.695C220.11 490.614 225.165 454.871 231.645 447.743C239.965 438.516 250.502 429.599 258.913 430.377Z" fill="white"/>
<path d="M258.914 430.382C262.29 431.058 265.571 432.142 268.686 433.609C278.147 437.73 287.206 442.68 296.252 447.657C309.77 455.252 323.326 462.794 336.156 471.49C337.752 472.614 338.875 474.291 339.305 476.195C340.388 479.509 341.292 482.879 342.014 486.291C343.44 493.172 344.787 499.95 344.762 507.026C344.658 511.044 343.984 513.688 339.577 514.232C328.341 515.878 316.988 515.269 305.713 515.062C295.345 514.556 284.977 514.219 274.609 512.392C259.355 509.243 244.179 505.199 229.949 498.797C228.249 498.042 226.682 497.018 225.309 495.764C221.486 489.621 222.86 481.729 223.287 474.912C224.648 465.671 225.879 455.666 231.219 447.774C238.464 440.387 247.691 430.2 258.798 430.343L258.914 430.382ZM258.914 430.382C248.339 430.382 240.252 439.117 233.331 446.128C230.944 448.584 229.223 451.608 228.329 454.915C226.328 461.469 225.08 468.23 224.609 475.067C224.098 480.13 224.263 485.238 225.102 490.256C225.659 492.848 226.398 494.715 228.731 495.816C240.239 501.35 252.94 504.046 265.317 506.975C278.614 510.189 292.286 510.759 305.933 511.264C312.776 511.524 319.632 511.679 326.449 511.588C331.179 511.407 336.376 511.679 340.835 510.409C340.835 510.603 341.159 509.955 341.249 509.243C342.144 501.907 340.692 494.274 339.487 486.822C338.832 482.673 337.791 478.595 336.376 474.64C336.169 474.043 335.521 473.694 334.938 473.162C322.457 464.09 309.238 456.042 295.993 448.124C287.152 442.813 278.027 437.989 268.66 433.673C265.557 432.186 262.284 431.081 258.914 430.382Z" fill="#DBDBDB"/>
<path d="M291.236 478.074C291.404 493.626 272.327 502.088 260.87 491.345C253.276 484.567 253.276 471.555 260.87 464.816C272.34 454.059 291.417 462.574 291.249 478.074H291.236ZM291.236 478.074C291.326 463.455 272.846 456.366 263.203 467.161C260.474 470.145 258.96 474.043 258.96 478.087C258.96 482.131 260.474 486.028 263.203 489.012C272.846 499.82 291.326 492.705 291.236 478.074Z" fill="#DBDBDB"/>
<path d="M326.068 489.426C326.314 502.541 309.816 510.032 300.148 500.857C298.588 499.389 297.345 497.618 296.496 495.652C295.646 493.686 295.208 491.567 295.208 489.426C295.208 487.284 295.646 485.166 296.496 483.2C297.345 481.234 298.588 479.463 300.148 477.995C309.842 468.807 326.353 476.311 326.068 489.426ZM326.068 489.426C326.068 477.023 310.581 471.191 302.468 480.354C294.886 488.376 300.459 502.386 311.54 502.995C313.395 503.11 315.254 502.845 317.004 502.216C318.753 501.588 320.356 500.61 321.715 499.341C323.073 498.072 324.159 496.54 324.905 494.837C325.651 493.135 326.043 491.298 326.055 489.439L326.068 489.426Z" fill="#DBDBDB"/>
<path d="M253.209 462.063C251.201 467.882 249.062 496.225 250.138 499.97C251.037 502.094 252.285 504.052 253.831 505.764C242.09 502.575 230.503 498.661 226.706 495.694C220.11 490.626 225.177 454.883 231.657 447.742C239.964 438.527 250.527 429.598 258.873 430.415C261.828 430.687 267.336 432.877 274.075 436.156C274.114 436.13 255.192 456.244 253.209 462.063Z" fill="#6C6A6A"/>
<path opacity="0.2" d="M253.207 462.065C251.198 467.884 249.06 496.227 250.135 499.959C251.03 502.089 252.279 504.052 253.829 505.765C242.087 502.577 230.501 498.663 226.704 495.695C220.107 490.628 225.174 454.885 231.654 447.744C239.962 438.529 250.524 429.6 258.87 430.403C261.825 430.689 267.333 432.879 274.073 436.158C274.111 436.132 255.19 456.246 253.207 462.065Z" fill="black"/>
<path d="M681.082 469.359C681.406 470.772 665.53 504.804 662.705 508.977C659.879 513.151 646.09 520.317 642.889 520.952C639.688 521.587 590.478 531.567 514.999 531.567C439.52 531.567 390.311 521.587 387.097 520.952C383.883 520.317 370.171 513.176 367.294 508.977C364.417 504.778 348.593 470.798 348.917 469.359C349.241 467.92 396.545 477.135 425.148 478.275C439.222 478.833 483.325 481.269 514.999 481.269C546.674 481.269 590.789 478.833 604.851 478.275C633.467 477.161 680.771 467.933 681.082 469.359Z" fill="#263238"/>
<path d="M380.05 473.393C386.53 474.313 393.386 475.272 400.229 476.089H351.499C351.058 475.104 350.669 474.197 350.345 473.393H380.05ZM649.955 473.393C643.475 474.313 636.619 475.272 629.776 476.089H678.506C678.946 475.104 679.335 474.197 679.659 473.393H649.955ZM544.396 480.78C534.248 481.065 524.113 481.273 515.002 481.273C505.891 481.273 495.757 481.065 485.609 480.78H353.56L354.765 483.45H675.24C675.667 482.53 676.069 481.636 676.458 480.78H544.396ZM356.89 488.141C357.305 489.049 357.72 489.93 358.186 490.811H671.818C672.233 489.93 672.661 489.049 673.114 488.141H356.89ZM360.351 495.503C360.804 496.423 361.245 497.33 361.647 498.198H668.319L669.615 495.503H360.351ZM363.953 502.864C364.446 503.849 364.938 504.743 365.34 505.56H664.651C665.053 504.743 665.533 503.849 666.038 502.864H363.953ZM368.36 510.225C369.394 511.209 370.503 512.11 371.678 512.921H658.301C659.482 512.113 660.596 511.212 661.632 510.225H368.36ZM379.48 517.612C381.299 518.598 383.167 519.489 385.078 520.282H644.887C646.804 519.492 648.677 518.601 650.499 517.612H379.48ZM411.88 524.973C418.36 525.855 425.915 526.775 434.585 527.643H595.354C604.025 526.775 611.619 525.855 618.06 524.973H411.88Z" fill="#37474F"/>
<path d="M642.659 256.851C642.659 256.851 630.127 246.249 617.063 252.963C603.999 259.676 604.336 289.872 603.507 298.789C602.677 307.705 595.549 310.958 605.101 317.684C614.652 324.411 626.964 325.344 639.134 323.4C651.303 321.456 659.87 315.028 660.946 309.377C661.632 305.917 658.587 303.053 657.407 297.584C656.708 294.357 659.429 256.604 642.659 256.851Z" fill="#263238"/>
<path d="M660.711 302.581C660.102 298.862 658.664 295.44 658.236 291.643C657.808 287.846 657.886 284.191 657.757 280.472C657.407 270.933 654.685 256.47 642.399 257.144C642.358 257.155 642.321 257.179 642.295 257.213C642.269 257.247 642.254 257.289 642.254 257.332C642.254 257.375 642.269 257.416 642.295 257.45C642.321 257.484 642.358 257.509 642.399 257.52C656.266 257.766 656.914 274.367 657.212 284.735C657.22 289.416 657.825 294.076 659.014 298.602C660.854 305.082 660.776 310.824 656.137 316.072C656.125 316.097 656.121 316.126 656.126 316.153C656.131 316.18 656.145 316.205 656.165 316.224C656.186 316.242 656.211 316.254 656.239 316.257C656.266 316.26 656.294 316.255 656.318 316.241C658.068 314.466 659.377 312.306 660.14 309.934C660.903 307.561 661.099 305.043 660.711 302.581Z" fill="#263238"/>
<path d="M640.233 256.782C633.39 252.375 625.471 248.889 617.384 252.362C610.373 255.356 606.42 262.497 604.813 269.521C602.584 279.319 604.243 289.583 601.651 299.329C600.731 302.763 598.022 306.561 598.618 310.28C599.137 313.585 601.858 314.414 604.852 314.816C605.008 314.816 605.072 314.609 604.852 314.583C597.581 313.287 599.15 308.271 600.964 303.373C602.225 299.959 603.057 296.403 603.439 292.784C604.256 285.54 603.776 278.191 605.137 271.012C606.433 264.026 609.686 256.872 616.348 253.334C624.681 248.902 632.729 252.609 640.077 256.898C640.093 256.919 640.116 256.933 640.141 256.936C640.167 256.94 640.193 256.933 640.213 256.918C640.234 256.902 640.248 256.879 640.251 256.854C640.255 256.828 640.248 256.802 640.233 256.782Z" fill="#263238"/>
<path d="M693.746 366.402L687.979 366.571L681.019 366.765L673.152 366.973L669.355 367.063H667.022H666.517H664.936L659.454 367.193C658.59 365.465 657.726 363.737 656.862 362.009L656.46 361.18L656.369 361.011C655.164 358.51 653.933 355.931 652.702 353.235C652.624 353.054 652.546 352.885 652.455 352.704L652.17 352.108C651.185 349.982 650.174 347.831 649.176 345.628L648.14 343.386C646.844 340.457 645.444 337.476 644.083 334.469L643.435 333.005C643.098 332.227 642.787 331.475 642.489 330.75C641.538 328.513 640.741 326.214 640.104 323.868C639.949 323.298 639.819 322.766 639.729 322.261C639.145 319.436 639.314 317.595 640.027 316.559L640.169 316.364C640.267 316.251 640.376 316.147 640.493 316.053L640.662 315.923C641.048 315.668 641.495 315.52 641.958 315.496C643.928 315.301 646.818 316.597 649.98 318.71C654.979 322.23 659.651 326.195 663.938 330.555C666.141 332.707 668.357 335.013 670.573 337.424C672.79 339.835 674.811 342.09 676.898 344.5L677.183 344.837C679.088 347.066 680.967 349.334 682.795 351.602L683.067 351.939C684.765 354.052 686.397 356.164 687.966 358.238C690.026 361.128 691.983 363.836 693.746 366.402Z" fill="#6C6A6A"/>
<path opacity="0.1" d="M687.98 366.567L681.02 366.762L673.153 366.969L669.356 367.06H667.023H666.518H664.937L659.455 367.189C658.591 365.461 657.727 363.733 656.863 362.005L656.461 361.176L656.383 361.007C655.178 358.506 653.947 355.927 652.716 353.231C652.638 353.05 652.56 352.882 652.469 352.7L652.184 352.104C651.199 349.978 650.188 347.827 649.19 345.624L648.154 343.382C646.858 340.453 645.458 337.472 644.097 334.465L643.449 333.001C643.112 332.223 642.801 331.472 642.503 330.746C641.581 328.511 640.811 326.216 640.196 323.877C640.036 323.297 639.907 322.708 639.807 322.115C639.302 319.523 639.393 317.605 640.041 316.542L640.183 316.347C640.265 316.22 640.365 316.107 640.481 316.011L640.663 316.205L651.186 327.376L655.644 332.094L656.94 333.39L665.701 342.682L666.453 343.486L670.341 347.594L672.156 349.512L672.959 350.367L678.571 356.329L679.309 357.106L684.714 362.835L687.98 366.567Z" fill="black"/>
<path d="M624.175 323.865C624.11 324.15 624.019 324.435 623.928 324.746C623.075 327.614 622.027 330.419 620.792 333.144L620.144 334.609L620.053 334.816L616.399 342.851C615.271 345.288 614.169 347.698 613.055 350.07L612.886 350.459C611.59 353.362 610.191 356.2 608.869 358.974C608.7 359.31 608.545 359.647 608.389 359.984C608.234 360.321 608.195 360.373 608.104 360.568C608.013 360.762 607.91 360.956 607.819 361.151C606.691 363.471 605.577 365.739 604.462 367.929L604.281 368.292H602.985H602.752L595.04 368.408H594.742L583.83 368.564H582.845L576.754 368.629H574.253H568.913C580.046 351.871 600.458 327.922 614.377 318.629C617.552 316.504 620.442 315.208 622.399 315.415C622.912 315.45 623.402 315.645 623.799 315.973L623.915 316.05L624.11 316.271L624.252 316.465C625.03 317.865 625.159 320.172 624.175 323.865Z" fill="#6C6A6A"/>
<path opacity="0.1" d="M624.134 323.738L623.862 324.749C623.035 327.612 622.008 330.414 620.791 333.134L620.143 334.599L620.052 334.806L616.397 342.841C615.27 345.278 614.168 347.688 613.054 350.06L612.885 350.449C611.589 353.352 610.19 356.19 608.868 358.963C608.699 359.3 608.544 359.637 608.388 359.974L608.116 360.557C608.012 360.752 607.922 360.946 607.831 361.14C606.703 363.46 605.589 365.728 604.474 367.919L604.293 368.281H602.997H602.763L595.052 368.398H594.754L583.842 368.554H582.857L576.766 368.618H574.264L579.176 363.434L584.295 357.991L584.412 357.875L590.555 351.395L590.801 351.122L602.53 338.694L603.761 337.398L606.561 334.43L608.634 332.227L622.696 317.31L623.59 316.364L623.772 316.17C623.772 316.17 623.849 316.17 623.862 316.273L624.057 316.494L624.199 316.688C624.964 317.945 624.964 320.33 624.134 323.738Z" fill="black"/>
<path d="M669.353 367.117H667.021H666.515H664.934L659.452 367.246H656.329C643.628 367.545 630.098 367.83 615.906 368.076L605.72 368.413H604.217H602.921H602.687L594.976 368.529C594.881 367.591 594.859 366.646 594.911 365.704C594.911 365.251 594.976 364.784 595.041 364.292C595.377 361.716 596.03 359.191 596.985 356.775L597.205 356.192C597.335 355.868 597.477 355.492 597.646 355.09C598.527 352.887 599.901 349.621 601.637 345.888C603.478 341.884 605.733 337.335 608.221 332.929L608.636 332.216C612.459 325.593 616.801 319.476 621.039 316.457C621.466 316.145 621.907 315.86 622.335 315.601C624.728 314.065 627.433 313.078 630.253 312.711C630.868 312.636 631.487 312.593 632.106 312.582C635.067 312.643 637.97 313.417 640.569 314.837C641.023 315.083 641.477 315.342 641.93 315.627C642.384 315.912 642.798 316.171 643.226 316.482C646.712 318.971 650.276 323.559 653.594 328.807C654.307 329.935 654.994 331.101 655.681 332.268C656.471 333.641 657.236 335.041 657.975 336.441C658.286 336.998 658.571 337.555 658.856 338.113C660.152 340.705 661.448 343.232 662.524 345.59C662.528 345.629 662.528 345.668 662.524 345.707L663.055 346.86C664.481 349.984 665.647 352.731 666.437 354.714C666.619 355.155 666.787 355.557 666.93 355.919L667.254 356.775C668.266 359.333 668.937 362.012 669.25 364.745C669.25 365.099 669.276 365.436 669.328 365.756C669.366 366.21 669.366 366.65 669.353 367.117Z" fill="#6C6A6A"/>
<path d="M640.802 319.714C640.362 321.334 637.316 329.33 629.747 329.33C623.876 329.33 622.71 317.576 622.71 317.576L619.872 302.646L638.897 291.461C638.897 291.461 640.984 319.014 640.802 319.714Z" fill="#F7A9A0"/>
<path d="M639.61 301.147C637.982 304.77 635.627 308.02 632.691 310.695C629.755 313.371 626.3 315.414 622.542 316.699L619.872 302.598L638.897 291.414C638.897 291.414 639.221 295.833 639.61 301.147Z" fill="#263238"/>
<path d="M603.452 278.807C598.45 303.185 612.524 308.926 617.773 309.989C622.555 310.961 638.963 313.657 646.467 289.927C653.97 266.197 644.186 256.231 633.364 253.38C622.542 250.529 608.442 254.43 603.452 278.807Z" fill="#F7A9A0"/>
<path d="M609.453 276.4C610.03 276.392 610.606 276.345 611.176 276.258C611.793 276.298 612.404 276.129 612.913 275.778C613.051 275.639 613.139 275.458 613.162 275.263C613.186 275.068 613.144 274.871 613.042 274.703C612.793 274.398 612.467 274.166 612.098 274.029C611.729 273.893 611.33 273.857 610.943 273.925C610.137 273.939 609.365 274.254 608.779 274.806C608.653 274.94 608.569 275.107 608.537 275.288C608.504 275.468 608.525 275.654 608.596 275.823C608.668 275.992 608.787 276.136 608.939 276.239C609.091 276.341 609.269 276.397 609.453 276.4Z" fill="#263238"/>
<path d="M626.457 279.373C625.898 279.216 625.348 279.026 624.812 278.803C624.209 278.685 623.662 278.37 623.256 277.909C623.157 277.739 623.117 277.541 623.142 277.347C623.168 277.152 623.259 276.971 623.399 276.833C623.716 276.6 624.09 276.455 624.482 276.414C624.874 276.373 625.269 276.437 625.628 276.6C626.403 276.816 627.072 277.309 627.507 277.987C627.593 278.148 627.631 278.331 627.616 278.513C627.601 278.695 627.535 278.869 627.425 279.015C627.314 279.16 627.165 279.272 626.993 279.335C626.822 279.399 626.636 279.412 626.457 279.373Z" fill="#263238"/>
<path d="M622.087 284.361C622.087 284.361 622.204 284.465 622.191 284.53C621.88 286.214 621.815 288.184 623.254 288.962C623.254 288.962 623.254 289.079 623.254 289.053C621.401 288.521 621.53 285.903 622.087 284.361Z" fill="#263238"/>
<path d="M623.866 282.877C626.614 283.084 626.005 288.54 623.465 288.359C620.925 288.177 621.56 282.669 623.866 282.877Z" fill="#263238"/>
<path d="M624.902 283.249C625.342 283.612 625.744 284.208 626.314 284.325C626.884 284.441 627.545 283.949 628.038 283.444C628.038 283.444 628.142 283.444 628.129 283.521C628.025 284.571 627.506 285.595 626.366 285.621C625.226 285.647 624.694 284.649 624.552 283.573C624.513 283.366 624.72 283.094 624.902 283.249Z" fill="#263238"/>
<path d="M612.407 282.736C612.407 282.736 612.264 282.813 612.264 282.878C612.135 284.576 611.72 286.507 610.126 286.909V286.999C612.031 286.935 612.562 284.369 612.407 282.736Z" fill="#263238"/>
<path d="M611.075 280.813C608.366 280.333 607.589 285.763 610.103 286.217C612.617 286.67 613.343 281.227 611.075 280.813Z" fill="#263238"/>
<path d="M609.895 281.011C609.415 281.244 608.923 281.71 608.404 281.659C607.886 281.607 607.445 280.972 607.108 280.363C607.108 280.363 607.03 280.363 607.017 280.363C606.849 281.399 607.017 282.527 608.002 282.864C608.987 283.201 609.687 282.384 610.089 281.386C610.18 281.231 610.076 280.92 609.895 281.011Z" fill="#263238"/>
<path d="M619.704 297.92C619.276 298.296 618.836 298.814 618.214 298.827C617.584 298.763 616.972 298.578 616.412 298.283C616.412 298.283 616.295 298.283 616.334 298.361C616.558 298.709 616.87 298.991 617.239 299.178C617.609 299.365 618.021 299.45 618.434 299.423C618.786 299.355 619.11 299.185 619.366 298.933C619.621 298.682 619.798 298.361 619.872 298.011C619.898 297.907 619.769 297.868 619.704 297.92Z" fill="#263238"/>
<path d="M613.38 290.952C613.38 290.952 612.732 293.428 612.576 294.62C612.576 294.737 612.848 294.827 613.25 294.892C614.249 295.202 615.314 295.231 616.329 294.978C617.343 294.724 618.269 294.197 619.004 293.454C619.108 293.35 619.004 293.207 618.849 293.259C617.203 294.112 615.326 294.412 613.496 294.115C613.496 293.765 614.792 289.903 614.585 289.864C613.648 289.838 612.711 289.933 611.799 290.149C613.017 284.965 615.065 279.975 616.205 274.765C616.219 274.726 616.216 274.682 616.198 274.645C616.18 274.607 616.147 274.578 616.108 274.565C616.068 274.551 616.025 274.553 615.987 274.572C615.95 274.59 615.921 274.622 615.907 274.662C613.547 279.918 611.719 285.397 610.451 291.017C610.321 291.691 612.887 291.095 613.38 290.952Z" fill="#263238"/>
<path d="M614.065 294.538C614.552 295.447 615.266 296.215 616.139 296.767C616.626 297.045 617.186 297.172 617.746 297.13C618.964 297.013 619.171 295.937 619.106 294.978C619.066 294.472 618.966 293.971 618.808 293.488C617.38 294.335 615.718 294.703 614.065 294.538Z" fill="#263238"/>
<path d="M616.089 296.822C616.577 297.1 617.136 297.227 617.696 297.185C618.914 297.068 619.122 295.992 619.057 295.033C618.433 294.955 617.801 295.089 617.263 295.413C616.725 295.738 616.311 296.234 616.089 296.822Z" fill="#FF9CBD"/>
<path d="M644.806 291.255C640.257 291.631 639.622 281.224 639.622 281.224C639.622 281.224 620.532 277.09 619.612 261.344C616.121 267.39 610.764 272.142 604.345 274.887C604.345 274.887 607.805 255.628 621.569 252.855C621.569 252.855 636.81 248.241 646.439 261.927C656.263 276.04 647.852 291.022 644.806 291.255Z" fill="#263238"/>
<path d="M619.561 260.185C619.225 262.593 619.407 265.045 620.092 267.377C620.746 269.746 621.884 271.953 623.436 273.857C623.821 274.313 624.232 274.746 624.667 275.153L625.315 275.814C625.536 276.022 625.782 276.203 626.015 276.397C626.508 276.773 626.974 277.175 627.467 277.525L629.035 278.471C629.294 278.614 629.553 278.782 629.825 278.925L630.655 279.288L632.314 280.013C633.467 280.389 634.634 280.713 635.787 281.011C634.698 280.48 633.584 280.065 632.534 279.521L630.966 278.678L630.201 278.251C629.942 278.095 629.709 277.914 629.476 277.758C628.996 277.408 628.516 277.071 628.024 276.76C627.532 276.449 627.143 275.996 626.728 275.62L626.067 275.05L625.471 274.415C625.06 274.007 624.675 273.574 624.317 273.119C622.852 271.307 621.704 269.261 620.922 267.066C620.523 265.957 620.215 264.817 620.002 263.658C619.754 262.515 619.606 261.353 619.561 260.185Z" fill="#263238"/>
<path d="M641.336 289.24C641.336 289.24 647.635 282.138 650.914 284.471C654.193 286.804 648.84 297.509 644.55 298.571C644.01 298.746 643.439 298.809 642.873 298.757C642.307 298.705 641.758 298.539 641.257 298.269C640.757 297.999 640.317 297.63 639.963 297.185C639.609 296.741 639.349 296.229 639.198 295.681L641.336 289.24Z" fill="#F7A9A0"/>
<path d="M649.305 287.497C649.37 287.497 649.37 287.601 649.305 287.614C646.273 288.443 644.445 290.945 643.058 293.588C643.26 293.318 643.518 293.095 643.814 292.935C644.11 292.774 644.438 292.679 644.774 292.657C645.11 292.635 645.447 292.686 645.762 292.806C646.076 292.927 646.361 293.114 646.597 293.355C646.661 293.355 646.597 293.524 646.493 293.498C646.005 293.279 645.462 293.217 644.938 293.319C644.414 293.421 643.934 293.683 643.564 294.068C642.944 294.72 642.396 295.437 641.931 296.206C641.775 296.453 641.322 296.206 641.451 295.973C641.451 295.973 641.451 295.973 641.451 295.908C641.853 292.228 645.314 287.407 649.305 287.497Z" fill="#263238"/>
<path d="M717.691 282.56L711.989 271.207C711.989 271.207 663.389 329.035 644.234 344.172C635.913 350.729 609.734 368.407 609.734 368.407L628.746 368.199C628.746 368.199 646.566 358.583 653.513 352.984C670.75 339.027 717.691 282.56 717.691 282.56Z" fill="#263238"/>
<path d="M673.305 361.448C673.18 358.194 672.648 354.968 671.724 351.845C671.582 351.391 671.452 350.938 671.296 350.549C670.994 349.685 670.657 348.791 670.286 347.866C669.511 346.005 668.592 344.207 667.538 342.488L666.994 341.62C663.936 336.947 659.926 332.972 655.226 329.956C654.682 329.593 654.124 329.243 653.554 328.919C652.777 328.465 651.986 328.051 651.182 327.623C647.707 325.905 643.994 324.717 640.166 324.098H640.089C639.7 324.033 639.298 323.968 638.883 323.929C637.195 323.705 635.493 323.593 633.79 323.592C630.651 323.592 627.523 323.966 624.472 324.707L623.928 324.837H623.863C618.084 326.346 612.722 329.147 608.181 333.027C607.611 333.507 607.067 333.999 606.522 334.518C605.55 335.464 604.617 336.449 603.723 337.485C603.282 338.004 602.855 338.522 602.427 339.067C599.049 343.459 596.638 348.516 595.351 353.906L595.118 354.994C594.565 357.646 594.287 360.347 594.288 363.055C594.288 363.353 594.288 363.639 594.288 363.937C594.288 364.442 594.288 364.935 594.353 365.44C594.353 366.477 594.508 367.514 594.651 368.524H594.949L602.66 368.408H602.894C602.894 368.097 602.79 367.786 602.751 367.475C602.531 366.012 602.423 364.535 602.427 363.055C602.425 361.594 602.529 360.134 602.738 358.688C602.738 358.247 602.868 357.807 602.945 357.392C603.548 354.145 604.659 351.014 606.237 348.113C606.613 347.439 607.002 346.817 607.417 346.143C608.86 343.844 610.604 341.748 612.601 339.909C614.818 337.879 617.314 336.177 620.014 334.855C625.578 332.128 631.828 331.118 637.968 331.951C644.109 332.784 649.863 335.423 654.5 339.533C654.902 339.883 655.291 340.233 655.667 340.609C657.611 342.504 659.301 344.643 660.695 346.972V347.076C660.915 347.452 661.123 347.828 661.33 348.203C662.698 350.744 663.71 353.461 664.337 356.277L664.57 357.431C664.903 359.287 665.072 361.169 665.076 363.055C665.077 364.434 664.986 365.811 664.803 367.177H666.385H666.89H669.223L673.02 367.086C673.15 365.794 673.214 364.496 673.214 363.198C673.344 362.498 673.331 361.928 673.305 361.448Z" fill="#263238"/>
<path d="M634.618 367.695L604.979 344.186L610.033 337.809L634.618 357.301L659.19 337.809L664.258 344.186L634.618 367.695Z" fill="#263238"/>
<path d="M687.938 358.365C687.006 360.032 685.908 361.6 684.659 363.044C683.538 364.372 682.321 365.615 681.017 366.763L673.15 366.971L669.353 367.062H667.02C667.078 366.979 667.143 366.901 667.214 366.828L667.435 366.595L667.059 366.802L666.515 367.087H664.934L659.451 367.217H656.328C654.915 365.519 655.784 363.446 656.859 361.916C657.293 361.282 657.788 360.691 658.337 360.154L658.661 359.83L658.22 360.076C657.622 360.388 657.007 360.669 656.38 360.919C654.06 361.813 650.535 362.616 648.397 360.387C647.998 360.021 647.695 359.562 647.514 359.052C647.333 358.541 647.28 357.994 647.36 357.458C647.697 355.411 649.952 353.674 650.768 353.052L651.118 352.806L650.379 352.948C648.721 353.22 644.729 353.544 643.187 350.952C643.109 350.81 643.031 350.693 642.966 350.551C641.891 348.049 644.664 345.665 648.15 343.384C650.263 341.997 652.634 340.662 654.566 339.353C655.88 338.557 657.032 337.519 657.961 336.295C658.009 336.229 658.052 336.159 658.091 336.087L658.622 333.003L655.252 329.698L653.581 328.661C655.11 329.711 657.106 329.556 660.89 330.087C662.018 330.242 663.028 330.372 663.936 330.54C665.606 330.727 667.213 331.285 668.64 332.173C669.471 332.721 670.106 333.518 670.455 334.449C670.805 335.381 670.85 336.399 670.584 337.357C670.869 337.254 674.874 335.802 677.466 338.342C678.84 339.703 677.894 343.099 677.894 343.099H677.984H678.075C679.026 342.815 680.036 342.793 680.998 343.035C681.961 343.276 682.84 343.773 683.544 344.472C685.333 346.455 684.101 349.553 684.101 349.553C684.101 349.553 687.925 349.941 689.104 352.559C689.7 353.998 689.182 356.059 687.938 358.365Z" fill="#F7A9A0"/>
<path d="M619.978 355.983C619.175 358.86 615.313 359.638 613.628 359.871L612.863 359.936L613.304 360.078C614.846 360.636 619.564 362.67 617.555 366.481C617.19 367.186 616.639 367.778 615.961 368.191L605.722 368.412H604.219H602.923H602.69L594.978 368.528H594.68L583.768 368.684H582.783L576.692 368.748C577.542 367.461 578.755 366.455 580.178 365.858C579.677 365.169 579.312 364.391 579.102 363.565C578.859 362.649 578.942 361.678 579.336 360.817C579.813 359.947 580.519 359.225 581.378 358.729C582.238 358.233 583.217 357.982 584.209 358.005H584.416C584.17 357.59 582.679 354.907 583.548 353.365C585.401 350.099 589.911 350.527 589.911 350.527C589.374 349.678 589.126 348.678 589.203 347.676C589.28 346.674 589.678 345.724 590.339 344.967C591.738 343.217 593.942 342.284 597.208 340.833C600.694 339.278 603.195 338.241 604.374 336.841L602.534 338.785L601.083 342.181L601.549 345.822L601.666 345.926C603.036 346.97 604.607 347.72 606.28 348.129C608.081 348.7 610.168 349.218 612.073 349.801L613.122 350.112C617.244 351.369 620.704 352.989 619.978 355.983Z" fill="#F7A9A0"/>
<path d="M583.689 368.685H582.704C581.848 367.959 581.045 367.195 580.28 366.404L580.358 366.326C581.511 367.117 582.613 367.946 583.689 368.685Z" fill="#263238"/>
<path d="M604.425 368.023L605.721 368.373H604.218H602.922H602.688C600 367.775 597.39 366.866 594.912 365.664L594.381 365.405C590.621 363.535 587.189 361.066 584.22 358.096C584.208 358.082 584.2 358.063 584.2 358.044C584.2 358.025 584.208 358.006 584.22 357.992H584.311C587.456 360.257 590.796 362.239 594.29 363.915L595.016 364.265C597.545 365.476 600.141 366.54 602.792 367.453C603.31 367.686 603.868 367.868 604.425 368.023Z" fill="#263238"/>
<path d="M613.493 359.772C604.849 358.955 597.332 355.456 590.165 350.7C590.075 350.635 589.997 350.777 590.062 350.842C592.952 354.108 597.838 356.635 601.842 358.268C605.509 359.868 609.531 360.476 613.506 360.031C613.558 360.057 613.61 359.798 613.493 359.772Z" fill="#263238"/>
<path d="M388.357 334.85C414.393 352.229 442.543 369.751 453.908 365.953C463.473 362.778 478.675 355.585 501.511 340.306C505.736 337.493 480.023 309.474 477.003 311.405C469.124 316.447 444.357 330.936 442.646 330.547C440.391 330.054 413.046 322.369 394.694 318.028C369.85 312.209 374.891 325.868 388.357 334.85Z" fill="#EB9481"/>
<path d="M496.196 343.79C500.525 342.857 521.442 337.31 526.497 334.381C531.551 331.453 545.457 322.108 543.63 318.026C541.803 313.944 537.513 316.354 537.513 316.354C537.513 316.354 542.762 311.468 540.558 307.516C538.355 303.563 531.784 307.516 531.784 307.516C531.784 307.516 536.813 302.111 534.376 298.327C531.94 294.543 525.978 299.623 525.978 299.623C525.978 299.623 530.8 294.893 527.443 292.638C523.399 289.929 515.494 299.662 509.675 302.435C508.379 303.07 482.018 313.309 482.018 313.309L496.196 343.79Z" fill="#EB9481"/>
<path d="M526.437 299.291C520.605 306.444 516.821 308.557 508.203 311.447C508.172 311.461 508.148 311.484 508.134 311.514C508.119 311.544 508.115 311.578 508.123 311.61C508.131 311.642 508.149 311.67 508.176 311.69C508.202 311.71 508.234 311.72 508.267 311.719C516.951 309.659 522.096 307.689 526.8 299.563C527.033 299.161 526.671 298.954 526.437 299.291Z" fill="#263238"/>
<path d="M532.237 307.018C525.536 313.912 521.441 316.245 512.641 319.978C512.525 319.978 512.641 320.25 512.732 320.211C521.661 317.321 526.742 315.234 532.535 307.458C532.794 307.057 532.548 306.707 532.237 307.018Z" fill="#263238"/>
<path d="M537.034 316.577C530.062 322.785 525.694 325.533 516.687 328.021C516.642 328.031 516.604 328.059 516.579 328.098C516.555 328.137 516.547 328.184 516.557 328.228C516.568 328.273 516.595 328.312 516.634 328.336C516.673 328.36 516.72 328.368 516.765 328.358C526.187 326.725 531.669 323.329 537.203 316.811C537.604 316.357 537.501 316.176 537.034 316.577Z" fill="#263238"/>
<path d="M475.72 312.414C475.72 312.414 482.2 302.837 485.984 299.26C489.768 295.683 508.755 287.596 510.738 291.549C513.33 296.733 503.273 303.576 497.933 306.284C497.933 306.284 503.882 318.234 497.752 324.713C491.622 331.193 475.72 312.414 475.72 312.414Z" fill="#EB9481"/>
<path d="M510.985 293.251C509.936 299.654 502.678 302.764 497.676 305.797C497.6 305.838 497.536 305.897 497.489 305.968C497.441 306.04 497.412 306.122 497.403 306.207C497.394 306.292 497.406 306.379 497.438 306.458C497.469 306.538 497.52 306.609 497.585 306.665C499.749 311.849 501.291 319.767 498.116 324.809C498.096 324.838 498.087 324.874 498.093 324.91C498.1 324.945 498.119 324.976 498.149 324.997C498.178 325.017 498.214 325.026 498.249 325.02C498.284 325.013 498.316 324.994 498.337 324.964C502.471 320.079 501.576 312.173 498.855 306.652C504.039 303.632 511.154 300.172 511.05 293.316C511.115 293.174 510.985 293.161 510.985 293.251Z" fill="#263238"/>
<path d="M471.096 311.189L499.672 346.181C499.672 346.181 464.901 365.711 451.085 367.344C440.717 368.575 404.494 348.98 385.663 333.493C366.392 317.656 380.816 313.638 393.932 317.371C407.047 321.103 441.702 329.67 442.584 329.462C443.465 329.255 471.096 311.189 471.096 311.189Z" fill="#455A64"/>
<path d="M476.237 333.751C474.319 331.358 472.388 328.965 470.444 326.571C468.513 324.213 466.634 321.724 464.534 319.508C464.43 319.405 464.249 319.508 464.327 319.638C465.934 322.113 467.839 324.446 469.614 326.818C471.39 329.189 473.425 331.807 475.343 334.296C479.127 339.22 483.119 343.977 487.162 348.694C487.266 348.811 487.408 348.694 487.331 348.539C483.741 343.536 480.086 338.611 476.237 333.751Z" fill="#263238"/>
<path opacity="0.1" d="M385.651 333.507C399.22 344.64 421.758 357.898 437.206 364.028L390.071 316.504C378.316 314.547 368.285 319.174 385.651 333.507Z" fill="black"/>
<path d="M416.505 368.252C390.118 367.811 365.961 367.241 345.043 366.658C346.274 363.223 347.557 359.841 348.931 356.536C349.048 356.251 349.164 355.953 349.294 355.668C349.424 355.383 349.657 354.761 349.851 354.372C352.809 347.102 356.378 340.096 360.517 333.429C361.952 331.154 363.505 328.956 365.17 326.845C366.492 325.172 367.902 323.571 369.395 322.05L369.577 321.868L369.732 321.726C370.095 321.35 370.471 321 370.847 320.65C371.304 320.238 371.814 319.89 372.363 319.613C373.861 318.897 375.461 318.416 377.106 318.188H377.443H377.625L378.726 318.071C381.794 317.802 384.884 318.008 387.889 318.68C389.409 319.012 390.893 319.489 392.321 320.106C393.156 320.478 393.961 320.911 394.732 321.402L395.173 321.674C395.622 321.965 396.055 322.281 396.469 322.62C396.86 322.925 397.228 323.258 397.57 323.618C397.868 323.929 398.166 324.253 398.464 324.603L398.827 325.03L399.203 325.51L399.786 326.275C403.532 331.459 407.16 339.533 410.582 349.188C410.776 349.758 410.984 350.328 411.178 350.911C412.98 356.303 414.781 362.187 416.505 368.252Z" fill="#455A64"/>
<path d="M382.489 323.539C382.33 325.254 381.746 326.902 380.791 328.334C380.713 328.464 380.635 328.607 380.532 328.749C380.29 329.138 380.018 329.54 379.715 329.954C378.876 331.094 377.963 332.176 376.981 333.194L376.501 333.7L376.177 334.011C375.464 334.737 374.687 335.475 373.844 336.214C370.449 339.208 365.693 343.07 360.405 347.178L358.837 348.396L357.916 349.109H357.826C355.039 351.261 352.149 353.451 349.259 355.589C344.075 359.477 338.891 363.158 334.472 366.281H333.565L318.868 365.827L318.414 366.087V365.815L306.167 365.413H305.39C294.451 365.037 285.626 364.713 279.379 364.467C281.206 360.471 283.923 356.946 287.323 354.164C292.239 349.926 297.497 346.103 303.044 342.733L303.783 342.279C306.375 340.715 309.018 339.199 311.714 337.73L313.762 336.655C317.974 334.439 322.341 332.365 326.722 330.447C340.978 324.291 355.96 319.807 368.699 318.303C369.023 318.303 369.347 318.226 369.671 318.2C369.995 318.174 370.527 318.096 370.967 318.057C371.408 318.018 372.017 317.979 372.522 317.954C374.043 317.86 375.57 317.943 377.071 318.2L377.408 318.265H377.525C377.731 318.303 377.935 318.355 378.134 318.42C381.18 319.301 382.618 321.077 382.489 323.539Z" fill="#455A64"/>
<path d="M367.256 341.41C364.845 343.354 362.431 345.332 360.011 347.345L358.715 348.434L357.899 349.121H357.808C354.853 351.583 351.886 354.045 348.879 356.469C344.641 359.89 340.338 363.221 335.919 366.331H334.48H333.56C339.12 362.443 344.589 358.257 349.773 354.292C356.201 349.432 362.15 344.844 367.256 341.41Z" fill="#263238"/>
<path d="M357.31 348.791C359.773 347.335 362.424 346.223 365.189 345.486C362.813 347.109 360.132 348.233 357.31 348.791Z" fill="#263238"/>
<path d="M391.235 335.459C385.519 336.639 376.033 327.683 372.391 320.555C372.132 320.063 373.026 315.009 373.804 308.801C374.27 305.042 374.698 300.843 374.801 296.981C374.801 296.191 398.855 303.565 398.855 303.565C397.332 308.35 396.401 313.302 396.082 318.313C396.08 318.847 396.119 319.38 396.198 319.907C396.198 319.985 396.198 320.063 396.198 320.167C396.639 323.199 396.756 334.319 391.235 335.459Z" fill="#EB9481"/>
<path d="M376.332 297.138C377.265 303.696 380.868 319.585 393.789 320.246C394.612 320.319 395.441 320.319 396.264 320.246C396.278 320.16 396.278 320.072 396.264 319.986C396.178 319.464 396.139 318.935 396.148 318.405C396.459 313.385 397.39 308.422 398.921 303.631C398.921 303.631 381.516 298.24 376.332 297.138Z" fill="#263238"/>
<path d="M370.515 268.279C367.987 276.898 372.821 301.651 378.99 307.159C387.946 315.078 402.448 315.674 409.135 304.943C415.615 294.575 408.759 262.396 401.878 257.445C391.743 250.11 374.234 255.54 370.515 268.279Z" fill="#EB9481"/>
<path d="M370.515 268.279C367.987 276.898 372.821 301.651 378.99 307.159C387.946 315.078 402.448 315.674 409.135 304.943C415.615 294.575 408.759 262.396 401.878 257.445C391.743 250.11 374.234 255.54 370.515 268.279Z" fill="#EB9481"/>
<path d="M395.069 283.868C395.069 283.803 394.952 283.972 394.965 284.037C395.302 285.709 395.406 287.678 393.98 288.495C393.98 288.495 393.98 288.599 393.98 288.586C395.769 288.067 395.652 285.397 395.069 283.868Z" fill="#263238"/>
<path d="M393.281 282.357C390.533 282.604 391.233 288.06 393.773 287.826C396.313 287.593 395.575 282.15 393.281 282.357Z" fill="#263238"/>
<path d="M404.633 282.878C404.633 282.878 404.775 282.878 404.788 283.021C404.944 284.719 405.423 286.624 407.017 287V287.09C405.112 287.038 404.516 284.485 404.633 282.878Z" fill="#263238"/>
<path d="M405.917 280.9C408.613 280.355 409.52 285.773 407.032 286.291C404.543 286.809 403.662 281.366 405.917 280.9Z" fill="#263238"/>
<path d="M390.303 279.805C391.045 279.684 391.78 279.524 392.506 279.326C393.303 279.258 394.058 278.936 394.657 278.405C394.815 278.201 394.9 277.951 394.9 277.693C394.9 277.435 394.815 277.184 394.657 276.98C394.284 276.626 393.822 276.379 393.321 276.265C392.819 276.151 392.296 276.174 391.806 276.332C390.784 276.499 389.861 277.04 389.214 277.848C389.098 278.043 389.036 278.265 389.033 278.491C389.03 278.718 389.086 278.941 389.196 279.139C389.306 279.337 389.466 279.503 389.661 279.62C389.855 279.737 390.076 279.801 390.303 279.805Z" fill="#263238"/>
<path d="M408.005 278.329C407.257 278.423 406.504 278.48 405.75 278.497C404.97 278.674 404.153 278.582 403.43 278.238C403.235 278.092 403.091 277.888 403.019 277.655C402.947 277.422 402.95 277.173 403.029 276.942C403.289 276.488 403.667 276.113 404.124 275.858C404.58 275.602 405.098 275.475 405.621 275.49C406.667 275.347 407.729 275.596 408.601 276.19C408.755 276.353 408.863 276.552 408.917 276.769C408.971 276.986 408.967 277.213 408.907 277.428C408.847 277.643 408.733 277.839 408.575 277.997C408.417 278.155 408.22 278.269 408.005 278.329Z" fill="#263238"/>
<path d="M402.653 292.317C402.653 292.317 403.042 294.909 403.068 296.127C403.068 296.244 402.77 296.309 402.355 296.335C401.306 296.541 400.221 296.456 399.218 296.088C398.214 295.72 397.332 295.084 396.665 294.248C396.575 294.131 396.73 294.002 396.847 294.067C398.422 295.117 400.296 295.627 402.186 295.518C402.277 295.181 401.357 291.112 401.551 291.086C402.507 291.16 403.448 291.361 404.351 291.682C403.677 286.265 402.135 280.99 401.551 275.586C401.541 275.545 401.548 275.501 401.569 275.464C401.591 275.428 401.627 275.402 401.668 275.391C401.709 275.381 401.753 275.388 401.789 275.409C401.826 275.431 401.852 275.467 401.862 275.508C403.871 280.912 404.778 287.172 405.621 292.706C405.686 293.406 403.145 292.524 402.653 292.317Z" fill="#263238"/>
<path d="M401.562 295.944C400.962 296.808 400.15 297.504 399.204 297.965C398.681 298.206 398.096 298.274 397.532 298.16C396.313 297.914 396.236 296.864 396.391 295.84C396.49 295.327 396.647 294.827 396.858 294.35C398.214 295.372 399.864 295.931 401.562 295.944Z" fill="#263238"/>
<path d="M399.204 297.969C398.681 298.209 398.096 298.277 397.532 298.163C396.313 297.917 396.236 296.867 396.391 295.843C397.032 295.826 397.659 296.027 398.17 296.414C398.681 296.8 399.045 297.348 399.204 297.969Z" fill="#FF9CBD"/>
<path d="M368.452 288.065C375.088 288.648 378.69 280.795 377.239 274.393C377.239 274.393 394.864 276.985 395.953 262.884C397.336 264.857 399.143 266.495 401.243 267.677C403.342 268.859 405.68 269.555 408.084 269.714L409.483 274.406C411.311 273.913 413.034 269.092 408.68 264.984C408.68 264.984 408.498 257.908 403.366 253.579C401.979 252.337 400.262 251.523 398.423 251.233C396.584 250.943 394.7 251.191 392.998 251.946C389.963 249.67 386.16 248.666 382.397 249.147C380.434 249.424 378.566 250.168 376.949 251.316C375.333 252.464 374.014 253.982 373.105 255.743C373.105 255.743 364.331 257.273 362.737 263.454C362.258 265.195 362.147 267.016 362.413 268.801C362.678 270.587 363.314 272.297 364.279 273.822C364.279 273.822 362.05 276.233 363.074 281.598C363.722 284.981 366.469 287.871 368.452 288.065Z" fill="#263238"/>
<path d="M395.576 261.59C395.699 262.744 395.699 263.908 395.576 265.063C395.474 266.197 395.239 267.315 394.876 268.394C394.166 270.531 392.676 272.323 390.703 273.409C388.672 274.427 386.43 274.951 384.158 274.938C383.018 274.874 381.864 274.938 380.711 274.783C379.557 274.627 378.417 274.485 377.25 274.368C378.378 274.666 379.518 274.912 380.659 275.185C381.799 275.457 382.992 275.431 384.158 275.56C386.554 275.672 388.938 275.177 391.092 274.122C393.217 272.919 394.789 270.933 395.472 268.588C396.096 266.301 396.131 263.894 395.576 261.59Z" fill="#263238"/>
<path d="M404.543 269.918C402.619 269.227 400.823 268.219 399.23 266.937C398.461 266.3 397.781 265.564 397.208 264.747C396.627 263.902 396.145 262.993 395.77 262.038C395.847 263.101 396.152 264.136 396.664 265.071C397.173 266.029 397.869 266.875 398.711 267.559C399.533 268.249 400.461 268.8 401.459 269.192C402.439 269.605 403.482 269.851 404.543 269.918Z" fill="#263238"/>
<path d="M376.328 288.789C376.328 288.789 370.457 281.013 366.88 283.074C363.303 285.135 367.891 296.682 372.219 298.133C372.765 298.356 373.35 298.466 373.939 298.455C374.529 298.444 375.11 298.313 375.647 298.071C376.184 297.828 376.666 297.479 377.064 297.044C377.462 296.609 377.767 296.098 377.961 295.541L376.328 288.789Z" fill="#EB9481"/>
<path d="M368.332 286.329V286.445C371.365 287.56 373.024 290.333 374.229 293.133C374.045 292.838 373.799 292.587 373.508 292.396C373.217 292.206 372.888 292.081 372.544 292.031C372.2 291.98 371.849 292.005 371.516 292.103C371.182 292.202 370.874 292.372 370.613 292.601C370.535 292.601 370.613 292.77 370.704 292.757C371.224 292.571 371.788 292.552 372.32 292.7C372.851 292.849 373.324 293.158 373.672 293.586C374.247 294.313 374.742 295.1 375.149 295.932C375.305 296.191 375.784 296.036 375.668 295.725C375.59 291.837 372.441 286.588 368.332 286.329Z" fill="#263238"/>
<path d="M396.264 317.705L390.237 331.753L373.078 313.609L367.998 319.169C367.998 319.169 384.548 347.875 384.69 346.592L390.743 334.565L398.959 343.184L398.713 321.943L396.264 317.705Z" fill="#DBDBDB"/>
<path d="M399.441 332.688C399.285 329.176 399.22 325.638 398.896 322.139C398.896 322.022 398.689 321.957 398.663 322.139C397.886 325.495 398.572 338.909 398.482 342.11C398.132 341.747 390.848 334.516 390.77 334.632C389.474 336.524 385.029 345.298 384.718 346.089C382.126 341.54 372.043 324.951 368.933 320.635C368.913 320.615 368.888 320.602 368.86 320.597C368.832 320.593 368.804 320.597 368.779 320.611C368.754 320.624 368.734 320.645 368.722 320.67C368.71 320.696 368.707 320.725 368.713 320.752C371.006 325.547 384.265 347.877 384.524 347.812C386.857 343.684 388.972 339.436 390.861 335.086C392.092 336.654 399.415 344.793 399.454 344.274C399.653 340.415 399.648 336.547 399.441 332.688Z" fill="#263238"/>
<path d="M312.26 282.711L317.884 271.177C317.884 271.177 366.446 329.004 385.6 344.141C393.908 350.699 420.1 368.376 420.1 368.376L401.088 368.169C401.088 368.169 383.255 358.553 376.308 352.954C359.019 339.035 312.26 282.711 312.26 282.711Z" fill="#263238"/>
<path d="M332.486 357.387C332.374 357.656 332.184 357.886 331.942 358.048L330.231 359.098H330.14L327.457 360.744C324.36 362.623 321.522 364.308 318.904 365.837L318.45 366.096V365.824L306.203 365.422H305.425C294.487 365.046 285.661 364.722 279.415 364.476H278.287C278.365 356.247 281.229 346.203 288.396 340.384C289.173 339.761 295.407 336.198 302.263 332.322L302.483 332.206L310.622 327.631L312.203 326.75L320.252 322.292C321.975 321.345 324.477 325.091 326.732 330.495C330.775 339.736 334.274 353.849 332.486 357.387Z" fill="#EB9481"/>
<path d="M308.408 332.388C308.408 332.388 313.968 319.428 319.009 313.427C324.398 307.394 331.171 302.759 338.748 299.923C346.925 296.826 368.815 294.998 370.448 301.219C371.912 306.844 349.44 307.582 349.44 307.582C349.44 307.582 372.236 303.046 372.768 310.174C373.299 317.302 347.146 316.654 347.146 316.654C347.146 316.654 370.668 312.52 370.059 319.933C369.592 325.532 345.889 326.296 345.889 326.296C345.889 326.296 366.132 322.875 365.899 328.655C365.64 335.044 343.867 337.118 343.867 337.118C340.808 351.711 333.395 357.4 327.628 360.835C326.176 361.625 308.408 332.388 308.408 332.388Z" fill="#EB9481"/>
<path d="M341.467 308.645C344.124 308.01 346.807 307.349 349.515 306.96C352.224 306.571 354.945 306.273 357.667 306.143C361.233 305.887 364.817 306.048 368.346 306.623C362.009 306.066 352.302 307.323 349.593 307.712C346.884 308.1 344.176 308.36 341.48 308.748L341.467 308.645Z" fill="#263238"/>
<path d="M342.701 318.432C346.135 317.784 349.518 317.007 352.978 316.501C356.438 315.996 359.73 315.814 363.19 315.555C363.463 315.555 363.385 315.685 363.113 315.711C359.665 316.112 356.503 316.76 353.043 317.201C349.582 317.642 346.135 317.953 342.675 318.497L342.701 318.432Z" fill="#263238"/>
<path d="M342.247 327.032C347.485 325.89 352.827 325.295 358.188 325.256C358.46 325.256 358.33 325.438 358.071 325.464C352.757 325.943 348.597 326.293 342.312 327.213C342.195 327.226 342.143 327.058 342.247 327.032Z" fill="#263238"/>
<path d="M318.412 365.823L306.165 365.421H305.388C294.449 365.045 285.624 364.721 279.377 364.475H278.249H277.381C277.356 359.755 278.315 355.082 280.196 350.753C282.077 346.424 284.839 342.535 288.306 339.332L311.142 320.32L311.894 325.025L312.179 326.787L313.76 336.74L314.693 342.572L318.412 365.823Z" fill="#455A64"/>
<path d="M306.164 365.476H305.386C305.036 362.638 304.738 359.774 304.44 356.91C303.948 352.218 303.455 347.501 303.041 342.796C302.963 342.045 302.898 341.28 302.833 340.516C302.613 337.794 302.38 335.072 302.224 332.338C302.224 331.962 302.224 331.586 302.224 331.21C302.224 331.133 302.341 331.094 302.354 331.21L302.509 332.26C303.028 335.617 303.455 338.999 303.805 342.382C304.013 344.092 304.194 345.79 304.388 347.488C305.002 352.94 305.555 358.405 306.047 363.882C306.073 364.375 306.125 364.919 306.164 365.476Z" fill="#263238"/>
<path d="M318.411 365.826H318.903L318.45 366.085L318.411 365.826Z" fill="#263238"/>
</g>
<rect x="21.5" y="1" width="622" height="521" rx="23.5" stroke="#EEEEEE"/>
<path d="M54.0173 111.07C47.5076 98.0535 31.6786 92.7792 18.6625 99.289C6.18019 105.532 0.824607 120.343 6.14671 133.027L2.54321 140.524L10.6602 140.262C18.371 149.04 31.2962 151.896 42.2363 146.425C55.2526 139.915 60.5272 124.086 54.0173 111.07Z" fill="#FFC727"/>
<path d="M54.0173 111.07C47.5076 98.0535 31.6786 92.7792 18.6625 99.289C6.18019 105.532 0.824607 120.343 6.14671 133.027L2.54321 140.524L10.6602 140.262C18.371 149.04 31.2962 151.896 42.2363 146.425C55.2526 139.915 60.5272 124.086 54.0173 111.07Z" fill="#FFCA00"/>
<path d="M0.39011 119.58H0.38097C0.165658 119.575 -0.00496485 119.396 0.000110349 119.181C0.205271 110.519 5.12699 102.023 12.538 97.5352C12.7218 97.425 12.9625 97.4829 13.0732 97.6667C13.1849 97.851 13.126 98.0907 12.9422 98.2024C5.75362 102.555 0.979177 110.797 0.78011 119.199C0.775035 119.411 0.601355 119.58 0.39011 119.58Z" fill="#FFC727"/>
<path d="M0.855333 127.386C0.690805 127.386 0.53846 127.281 0.48463 127.117C0.065177 125.829 -0.0861518 124.436 0.0468954 123.088C0.0672066 122.875 0.246967 122.708 0.473458 122.738C0.68775 122.759 0.844163 122.95 0.822833 123.165C0.700955 124.406 0.840092 125.689 1.22604 126.875C1.29306 127.08 1.18032 127.3 0.976192 127.367C0.93557 127.38 0.894947 127.386 0.855333 127.386Z" fill="#FFC727"/>
<path d="M20.3088 120.544C20.4553 119.224 21.0906 117.986 21.9717 116.993C22.8349 116.02 23.9634 115.251 25.2335 114.97C26.5827 114.671 28.0503 114.954 29.192 115.732C29.8711 116.195 30.429 116.829 30.8149 117.554C31.189 116.909 31.7017 116.343 32.3157 115.918C33.4519 115.132 34.9176 114.839 36.2686 115.129C37.5407 115.401 38.6746 116.162 39.5445 117.129C40.4325 118.116 41.0763 119.349 41.2319 120.668C41.4266 122.32 41.1135 124.129 40.2616 125.557C39.3617 127.066 37.9038 128.286 36.4028 129.198C33.8785 130.731 30.5546 132.65 30.5546 132.65C30.5546 132.65 27.7322 130.555 25.1974 129.04C23.6898 128.139 22.2233 126.928 21.3133 125.426C20.4515 124.004 20.1257 122.196 20.3088 120.544Z" fill="#1D1A1A"/>
<defs>
<clipPath id="clip0_55_31004">
<rect x="21" y="0.5" width="623" height="522" rx="24" fill="white"/>
</clipPath>
</defs>
</svg>
