<svg width="177" height="24" viewBox="0 0 177 24" fill="none" xmlns="http://www.w3.org/2000/svg">
<path d="M0.361321 21.6054C0.361321 21.6054 0.817273 21.1743 1.72918 20.3122C2.64108 19.4525 4.63523 17.7859 7.71162 15.3123C10.7846 12.8364 13.2656 11.1698 15.1548 10.3125C17.044 9.45279 19.2859 9.37114 21.8806 10.0676C24.4752 10.7616 26.3042 11.2419 27.3675 11.5084C28.4342 11.775 29.3478 11.7906 30.1083 11.5553C30.8723 11.3199 31.6896 10.8444 32.5602 10.1288C33.4273 9.41556 34.5078 8.53303 35.8017 7.48119C37.0922 6.42935 38.1778 5.61045 39.0588 5.02449C39.9397 4.44094 40.7432 4.00747 41.4693 3.7241C42.1988 3.44313 43.0815 3.26182 44.1173 3.18017C45.1565 3.09852 46.2869 3.25942 47.5085 3.66287C48.7336 4.06391 49.6627 4.51659 50.2958 5.02089C50.929 5.5228 51.4779 6.00549 51.9424 6.46897C52.407 6.93005 52.9851 7.48119 53.6768 8.12238C54.3684 8.76357 55.0756 9.46239 55.7982 10.2189C56.5174 10.9753 57.2349 11.5264 57.9507 11.8723C58.663 12.2181 59.7986 11.757 61.3574 10.489C62.9163 9.22105 64.3564 8.22684 65.6778 7.5064C67.0026 6.78596 67.9799 6.194 68.6096 5.73052C69.2359 5.26944 69.8674 4.80716 70.504 4.34368C71.1406 3.8802 71.7686 3.42392 72.388 2.97485C73.0074 2.52577 73.663 2.10192 74.3546 1.70327C75.0429 1.30463 76.0563 0.849556 77.3949 0.338045C78.7335 -0.175867 80.4145 -0.103824 82.4379 0.554176C84.4613 1.21458 85.9186 1.72969 86.8099 2.09952C87.7011 2.47174 89.174 3.36148 91.2283 4.76874C93.2827 6.17599 94.7589 7.11136 95.6571 7.57484C96.5552 8.03833 97.4688 8.22084 98.398 8.12238C99.3271 8.02632 100.106 7.84501 100.736 7.57845C101.366 7.31188 102.214 6.87122 103.281 6.25644C104.351 5.64167 105.198 5.15417 105.821 4.79395C106.443 4.43133 107.087 4.08192 107.751 3.74572C108.415 3.40951 109.2 3.01447 110.105 2.5606C111.013 2.10672 111.975 1.75851 112.99 1.51596C114.005 1.27341 115.167 1.23859 116.474 1.4115C117.782 1.582 118.771 1.83656 119.442 2.17516C120.117 2.51617 120.75 2.95924 121.342 3.50437C121.937 4.0519 122.581 4.76033 123.272 5.62966C123.967 6.49659 124.578 7.37072 125.105 8.25206C125.628 9.13339 126.092 9.93788 126.498 10.6655C126.901 11.3932 127.467 11.5673 128.197 11.1878C128.93 10.8084 129.807 10.2645 130.829 9.55605C131.851 8.85002 132.663 8.26767 133.265 7.80899C133.871 7.35031 134.599 6.85561 135.449 6.32488C136.302 5.79416 137.018 5.3559 137.596 5.01008C138.171 4.66187 138.99 4.26683 140.053 3.82496C141.116 3.38069 142.396 3.10333 143.893 2.99286C145.387 2.88239 146.553 2.93762 147.393 3.15856C148.229 3.3819 149.019 3.67127 149.762 4.02669C150.502 4.3821 151.189 4.78195 151.822 5.22622C152.458 5.67049 153.109 6.15198 153.773 6.67069C154.434 7.18941 155.824 7.13538 157.944 6.5086C160.063 5.88182 161.875 5.41833 163.379 5.11815C164.879 4.81557 165.967 4.5382 166.641 4.28605C167.316 4.03389 168.104 3.73851 169.005 3.39991C169.907 3.0637 170.917 2.78033 172.035 2.54979C173.157 2.32165 173.871 2.20758 174.177 2.20758C174.487 2.20998 174.788 2.2448 175.081 2.31205C175.373 2.38169 175.643 2.48255 175.891 2.61463C176.135 2.74671 176.343 2.9016 176.516 3.07931C176.688 3.25942 176.815 3.45274 176.897 3.65926C176.98 3.86819 177.013 4.07952 176.996 4.29325C176.975 4.50938 176.908 4.71711 176.794 4.91643C176.677 5.11815 176.519 5.30066 176.319 5.46396C176.12 5.62726 175.887 5.76414 175.623 5.87461C175.354 5.98508 175.07 6.06313 174.771 6.10875C174.468 6.15438 174.163 6.16519 173.857 6.14117C173.548 6.11716 173.253 6.05952 172.975 5.96827C172.696 5.87701 172.445 5.75694 172.221 5.60805C171.997 5.45916 171.813 5.28986 171.669 5.10014C171.524 4.90802 171.428 4.7063 171.38 4.49497C171.331 4.28124 171.331 4.06871 171.38 3.85738C171.431 3.64365 171.531 3.44193 171.679 3.25222C171.823 3.0625 172.008 2.8932 172.231 2.74431C172.458 2.59782 172.711 2.47895 172.99 2.38769C173.272 2.29884 173.566 2.2424 173.873 2.21839C174.182 2.19677 174.487 2.20878 174.786 2.25441C175.089 2.30244 175.373 2.38289 175.638 2.49576C175.903 2.60622 176.134 2.74431 176.33 2.91001C176.529 3.07331 176.686 3.25582 176.799 3.45754C176.913 3.65926 176.978 3.86699 176.996 4.08072C177.009 4.29685 176.975 4.50818 176.892 4.7147C176.81 4.92363 176.681 5.11695 176.505 5.29466C176.33 5.47237 176.12 5.62606 175.875 5.75574C175.628 5.88542 175.358 5.98508 175.065 6.05472C174.773 6.12196 174.626 6.15558 174.626 6.15558C174.626 6.15558 174.262 6.20121 173.532 6.29247C172.802 6.38132 172.014 6.53501 171.168 6.75355C170.321 6.97208 169.477 7.21583 168.634 7.48479C167.794 7.75615 166.672 8.12238 165.268 8.58346C163.868 9.04454 161.505 9.67972 158.181 10.489C154.857 11.3007 152.648 11.512 151.553 11.123C150.456 10.734 149.618 10.2897 149.04 9.79019C148.458 9.29069 147.818 8.80799 147.119 8.34211C146.421 7.87383 145.614 7.59286 144.699 7.4992C143.787 7.40554 142.935 7.56524 142.144 7.97829C141.352 8.39134 140.631 8.83561 139.981 9.3111C139.33 9.78659 138.709 10.2801 138.117 10.7916C137.526 11.3055 136.925 11.8098 136.316 12.3045C135.707 12.8016 134.917 13.3636 133.947 13.9903C132.98 14.6195 132.106 15.143 131.325 15.5609C130.54 15.9812 129.721 16.3018 128.868 16.5227C128.014 16.746 127.173 16.8337 126.344 16.7856C125.514 16.7376 124.773 16.5683 124.119 16.2777C123.462 15.9896 122.904 15.5981 122.446 15.1034C121.985 14.6087 121.531 14.0096 121.084 13.3059C120.636 12.6023 120.218 11.8723 119.829 11.1158C119.441 10.3569 119.031 9.61008 118.601 8.87523C118.171 8.14039 117.606 7.41034 116.908 6.6851C116.209 5.96226 115.473 5.59244 114.699 5.57563C113.928 5.56122 112.959 5.81938 111.793 6.3501C110.63 6.88082 109.723 7.31909 109.072 7.6649C108.425 8.00831 107.748 8.36613 107.039 8.73835C106.33 9.11298 105.64 9.44798 104.969 9.74336C104.301 10.0387 103.465 10.3545 102.46 10.6907C101.459 11.0293 100.402 11.2479 99.2909 11.3463C98.1795 11.4448 97.1144 11.3631 96.0958 11.1014C95.0807 10.8396 94.0363 10.441 92.9627 9.90546C91.8856 9.37234 90.3852 8.51982 88.4616 7.34791C86.538 6.1784 85.1788 5.42194 84.3839 5.07853C83.589 4.73512 82.6581 4.35088 81.5914 3.92583C80.5246 3.50077 79.4871 3.54639 78.4789 4.06271C77.4706 4.57902 76.6499 5.05211 76.0167 5.48197C75.3836 5.91424 74.7452 6.3513 74.1017 6.79317C73.4548 7.23744 72.7734 7.71173 72.0577 8.21603C71.3419 8.72274 70.399 9.40596 69.2291 10.2657C68.0556 11.1254 66.0339 12.3898 63.164 14.0588C60.2907 15.7254 58.4049 16.5491 57.5068 16.5299C56.6086 16.5083 55.6245 16.2441 54.5543 15.7374C53.4841 15.2331 52.5412 14.5967 51.7256 13.8282C50.9067 13.0598 50.1823 12.3261 49.5526 11.6273C48.9263 10.9261 48.2604 10.2309 47.555 9.54164C46.853 8.85482 46.0254 8.28327 45.0722 7.827C44.119 7.36832 43.269 7.32509 42.5223 7.69732C41.7756 8.06954 41.0392 8.55104 40.3131 9.1418C39.587 9.73496 38.9676 10.2633 38.4549 10.7268C37.9421 11.1878 37.1575 11.7774 36.1011 12.4954C35.0447 13.2135 33.9882 13.761 32.9318 14.138C31.8754 14.5175 30.7364 14.6147 29.5147 14.4298C28.2897 14.2425 27.149 13.9855 26.0925 13.6589C25.0326 13.3299 23.4704 12.8124 21.4057 12.1064C19.3375 11.4028 17.7684 11.4172 16.6982 12.1496C15.6245 12.8845 13.6407 14.4706 10.7467 16.9081C7.85615 19.3456 6.01685 21.0242 5.22883 21.944C4.4408 22.8613 3.99001 23.368 3.87646 23.4641C3.75946 23.5578 3.62869 23.6406 3.48416 23.7127C3.33964 23.7847 3.18306 23.8435 3.01445 23.8892C2.84927 23.9372 2.67894 23.9696 2.50344 23.9864C2.3245 24.0032 2.149 24.0044 1.97694 23.99C1.798 23.978 1.62422 23.9504 1.45561 23.9072C1.29043 23.8664 1.13386 23.8111 0.985889 23.7415C0.834479 23.6718 0.698553 23.5914 0.578113 23.5001C0.457673 23.4089 0.356159 23.308 0.273571 23.1975C0.187543 23.0895 0.122161 22.9742 0.0774259 22.8517C0.0292498 22.7317 0.00344115 22.6092 0 22.4843C0 22.3642 0.0189264 22.243 0.056779 22.1205C0.0980728 21.998 0.158293 21.8815 0.237439 21.7711C0.320027 21.6606 0.361321 21.6054 0.361321 21.6054Z" fill="#E9B902"/>
</svg>
