<svg width="1440" height="858" viewBox="0 0 1440 858" fill="none" xmlns="http://www.w3.org/2000/svg">
<g clip-path="url(#clip0_188_4814)">
<rect width="1440" height="858" fill="#1B1B1B"/>
<mask id="path-1-outside-1_188_4814" maskUnits="userSpaceOnUse" x="1298" y="85" width="188" height="37" fill="black">
<rect fill="white" x="1298" y="85" width="188" height="37"/>
<path d="M1304.36 113.605C1304.36 113.605 1304.81 113.174 1305.72 112.312C1306.63 111.452 1308.61 109.786 1311.67 107.312C1314.72 104.836 1317.19 103.17 1319.07 102.313C1320.95 101.453 1323.18 101.371 1325.76 102.068C1328.34 102.762 1330.16 103.242 1331.21 103.508C1332.27 103.775 1333.18 103.791 1333.94 103.555C1334.7 103.32 1335.51 102.844 1336.38 102.129C1337.24 101.416 1338.31 100.533 1339.6 99.4812C1340.88 98.4293 1341.96 97.6105 1342.84 97.0245C1343.71 96.4409 1344.51 96.0075 1345.24 95.7241C1345.96 95.4431 1346.84 95.2618 1347.87 95.1802C1348.9 95.0985 1350.03 95.2594 1351.24 95.6629C1352.46 96.0639 1353.38 96.5166 1354.01 97.0209C1354.64 97.5228 1355.19 98.0055 1355.65 98.469C1356.11 98.9301 1356.69 99.4812 1357.37 100.122C1358.06 100.764 1358.76 101.462 1359.48 102.219C1360.2 102.975 1360.91 103.526 1361.62 103.872C1362.33 104.218 1363.46 103.757 1365.01 102.489C1366.56 101.221 1367.99 100.227 1369.31 99.5064C1370.62 98.786 1371.6 98.194 1372.22 97.7305C1372.84 97.2694 1373.47 96.8072 1374.11 96.3437C1374.74 95.8802 1375.36 95.4239 1375.98 94.9748C1376.59 94.5258 1377.25 94.1019 1377.93 93.7033C1378.62 93.3046 1379.63 92.8496 1380.96 92.338C1382.29 91.8241 1383.96 91.8962 1385.97 92.5542C1387.98 93.2146 1389.43 93.7297 1390.32 94.0995C1391.21 94.4717 1392.67 95.3615 1394.71 96.7687C1396.76 98.176 1398.22 99.1114 1399.12 99.5748C1400.01 100.038 1400.92 100.221 1401.84 100.122C1402.77 100.026 1403.54 99.845 1404.17 99.5784C1404.79 99.3119 1405.64 98.8712 1406.7 98.2564C1407.76 97.6417 1408.6 97.1542 1409.22 96.794C1409.84 96.4313 1410.48 96.0819 1411.14 95.7457C1411.8 95.4095 1412.58 95.0145 1413.48 94.5606C1414.39 94.1067 1415.34 93.7585 1416.35 93.516C1417.36 93.2734 1418.52 93.2386 1419.82 93.4115C1421.12 93.582 1422.1 93.8366 1422.77 94.1752C1423.44 94.5162 1424.07 94.9592 1424.66 95.5044C1425.25 96.0519 1425.89 96.7603 1426.58 97.6297C1427.27 98.4966 1427.87 99.3707 1428.4 100.252C1428.92 101.133 1429.38 101.938 1429.78 102.666C1430.18 103.393 1430.75 103.567 1431.47 103.188C1432.2 102.808 1433.07 102.264 1434.09 101.556C1435.11 100.85 1435.91 100.268 1436.51 99.809C1437.11 99.3503 1437.84 98.8556 1438.68 98.3249C1439.53 97.7942 1440.24 97.3559 1440.82 97.0101C1441.39 96.6619 1442.2 96.2668 1443.26 95.825C1444.32 95.3807 1445.59 95.1033 1447.08 94.9929C1448.57 94.8824 1449.73 94.9376 1450.56 95.1586C1451.39 95.3819 1452.18 95.6713 1452.92 96.0267C1453.65 96.3821 1454.33 96.7819 1454.96 97.2262C1455.6 97.6705 1456.24 98.152 1456.9 98.6707C1457.56 99.1894 1458.94 99.1354 1461.05 98.5086C1463.16 97.8818 1464.96 97.4183 1466.46 97.1182C1467.95 96.8156 1469.03 96.5382 1469.7 96.286C1470.37 96.0339 1471.15 95.7385 1472.05 95.3999C1472.95 95.0637 1473.95 94.7803 1475.06 94.5498C1476.18 94.3217 1476.89 94.2076 1477.19 94.2076C1477.5 94.21 1477.8 94.2448 1478.09 94.312C1478.38 94.3817 1478.65 94.4825 1478.9 94.6146C1479.14 94.7467 1479.35 94.9016 1479.52 95.0793C1479.69 95.2594 1479.82 95.4527 1479.9 95.6593C1479.98 95.8682 1480.01 96.0795 1480 96.2932C1479.98 96.5094 1479.91 96.7171 1479.8 96.9164C1479.68 97.1182 1479.52 97.3007 1479.32 97.464C1479.12 97.6273 1478.89 97.7641 1478.63 97.8746C1478.36 97.9851 1478.08 98.0631 1477.78 98.1088C1477.48 98.1544 1477.18 98.1652 1476.87 98.1412C1476.57 98.1172 1476.27 98.0595 1476 97.9683C1475.72 97.877 1475.47 97.7569 1475.25 97.608C1475.03 97.4592 1474.84 97.2899 1474.7 97.1001C1474.56 96.908 1474.46 96.7063 1474.41 96.495C1474.36 96.2812 1474.36 96.0687 1474.41 95.8574C1474.46 95.6437 1474.56 95.4419 1474.71 95.2522C1474.85 95.0625 1475.04 94.8932 1475.26 94.7443C1475.48 94.5978 1475.74 94.4789 1476.01 94.3877C1476.29 94.2988 1476.59 94.2424 1476.89 94.2184C1477.2 94.1968 1477.5 94.2088 1477.8 94.2544C1478.1 94.3024 1478.38 94.3829 1478.65 94.4958C1478.91 94.6062 1479.14 94.7443 1479.33 94.91C1479.53 95.0733 1479.69 95.2558 1479.8 95.4575C1479.91 95.6593 1479.98 95.867 1480 96.0807C1480.01 96.2969 1479.98 96.5082 1479.89 96.7147C1479.81 96.9236 1479.68 97.117 1479.51 97.2947C1479.33 97.4724 1479.12 97.6261 1478.88 97.7557C1478.64 97.8854 1478.37 97.9851 1478.08 98.0547C1477.79 98.122 1477.64 98.1556 1477.64 98.1556C1477.64 98.1556 1477.28 98.2012 1476.55 98.2925C1475.83 98.3813 1475.04 98.535 1474.2 98.7535C1473.36 98.9721 1472.52 99.2158 1471.68 99.4848C1470.85 99.7562 1469.73 100.122 1468.33 100.583C1466.94 101.045 1464.59 101.68 1461.29 102.489C1457.98 103.301 1455.79 103.512 1454.7 103.123C1453.61 102.734 1452.77 102.29 1452.2 101.79C1451.62 101.291 1450.98 100.808 1450.29 100.342C1449.59 99.8738 1448.79 99.5929 1447.88 99.4992C1446.97 99.4055 1446.13 99.5652 1445.34 99.9783C1444.55 100.391 1443.84 100.836 1443.19 101.311C1442.54 101.787 1441.93 102.28 1441.34 102.792C1440.75 103.306 1440.15 103.81 1439.55 104.305C1438.94 104.802 1438.15 105.364 1437.19 105.99C1436.23 106.62 1435.36 107.143 1434.58 107.561C1433.8 107.981 1432.99 108.302 1432.14 108.523C1431.29 108.746 1430.45 108.834 1429.63 108.786C1428.81 108.738 1428.07 108.568 1427.42 108.278C1426.76 107.99 1426.21 107.598 1425.75 107.103C1425.3 106.609 1424.84 106.01 1424.4 105.306C1423.95 104.602 1423.54 103.872 1423.15 103.116C1422.77 102.357 1422.36 101.61 1421.93 100.875C1421.5 100.14 1420.94 99.4103 1420.25 98.6851C1419.55 97.9623 1418.82 97.5924 1418.05 97.5756C1417.28 97.5612 1416.32 97.8194 1415.16 98.3501C1414 98.8808 1413.1 99.3191 1412.46 99.6649C1411.81 100.008 1411.14 100.366 1410.43 100.738C1409.73 101.113 1409.04 101.448 1408.38 101.743C1407.71 102.039 1406.88 102.355 1405.88 102.691C1404.89 103.029 1403.84 103.248 1402.73 103.346C1401.62 103.445 1400.57 103.363 1399.55 103.101C1398.54 102.84 1397.51 102.441 1396.44 101.905C1395.37 101.372 1393.87 100.52 1391.96 99.3479C1390.05 98.1784 1388.7 97.4219 1387.91 97.0785C1387.12 96.7351 1386.19 96.3509 1385.13 95.9258C1384.07 95.5008 1383.04 95.5464 1382.04 96.0627C1381.03 96.579 1380.22 97.0521 1379.59 97.482C1378.96 97.9142 1378.32 98.3513 1377.68 98.7932C1377.04 99.2374 1376.36 99.7117 1375.65 100.216C1374.94 100.723 1374 101.406 1372.84 102.266C1371.67 103.125 1369.66 104.39 1366.81 106.059C1363.95 107.725 1362.07 108.549 1361.18 108.53C1360.29 108.508 1359.31 108.244 1358.25 107.737C1357.18 107.233 1356.24 106.597 1355.43 105.828C1354.62 105.06 1353.9 104.326 1353.27 103.627C1352.65 102.926 1351.99 102.231 1351.29 101.542C1350.59 100.855 1349.77 100.283 1348.82 99.827C1347.87 99.3683 1347.02 99.3251 1346.28 99.6973C1345.54 100.07 1344.81 100.551 1344.09 101.142C1343.36 101.735 1342.75 102.263 1342.24 102.727C1341.73 103.188 1340.95 103.777 1339.9 104.495C1338.85 105.213 1337.8 105.761 1336.75 106.138C1335.7 106.517 1334.56 106.615 1333.35 106.43C1332.13 106.242 1331 105.986 1329.95 105.659C1328.89 105.33 1327.34 104.812 1325.28 104.106C1323.23 103.403 1321.67 103.417 1320.6 104.15C1319.54 104.884 1317.56 106.471 1314.69 108.908C1311.81 111.346 1309.98 113.024 1309.2 113.944C1308.42 114.861 1307.97 115.368 1307.85 115.464C1307.74 115.558 1307.61 115.641 1307.46 115.713C1307.32 115.785 1307.17 115.844 1307 115.889C1306.83 115.937 1306.66 115.97 1306.49 115.986C1306.31 116.003 1306.14 116.004 1305.97 115.99C1305.79 115.978 1305.62 115.95 1305.45 115.907C1305.28 115.866 1305.13 115.811 1304.98 115.741C1304.83 115.672 1304.69 115.591 1304.57 115.5C1304.46 115.409 1304.35 115.308 1304.27 115.198C1304.19 115.089 1304.12 114.974 1304.08 114.852C1304.03 114.732 1304 114.609 1304 114.484C1304 114.364 1304.02 114.243 1304.06 114.12C1304.1 113.998 1304.16 113.882 1304.24 113.771C1304.32 113.661 1304.36 113.605 1304.36 113.605Z"/>
</mask>
<path d="M1304.36 113.605C1304.36 113.605 1304.81 113.174 1305.72 112.312C1306.63 111.452 1308.61 109.786 1311.67 107.312C1314.72 104.836 1317.19 103.17 1319.07 102.313C1320.95 101.453 1323.18 101.371 1325.76 102.068C1328.34 102.762 1330.16 103.242 1331.21 103.508C1332.27 103.775 1333.18 103.791 1333.94 103.555C1334.7 103.32 1335.51 102.844 1336.38 102.129C1337.24 101.416 1338.31 100.533 1339.6 99.4812C1340.88 98.4293 1341.96 97.6105 1342.84 97.0245C1343.71 96.4409 1344.51 96.0075 1345.24 95.7241C1345.96 95.4431 1346.84 95.2618 1347.87 95.1802C1348.9 95.0985 1350.03 95.2594 1351.24 95.6629C1352.46 96.0639 1353.38 96.5166 1354.01 97.0209C1354.64 97.5228 1355.19 98.0055 1355.65 98.469C1356.11 98.9301 1356.69 99.4812 1357.37 100.122C1358.06 100.764 1358.76 101.462 1359.48 102.219C1360.2 102.975 1360.91 103.526 1361.62 103.872C1362.33 104.218 1363.46 103.757 1365.01 102.489C1366.56 101.221 1367.99 100.227 1369.31 99.5064C1370.62 98.786 1371.6 98.194 1372.22 97.7305C1372.84 97.2694 1373.47 96.8072 1374.11 96.3437C1374.74 95.8802 1375.36 95.4239 1375.98 94.9748C1376.59 94.5258 1377.25 94.1019 1377.93 93.7033C1378.62 93.3046 1379.63 92.8496 1380.96 92.338C1382.29 91.8241 1383.96 91.8962 1385.97 92.5542C1387.98 93.2146 1389.43 93.7297 1390.32 94.0995C1391.21 94.4717 1392.67 95.3615 1394.71 96.7687C1396.76 98.176 1398.22 99.1114 1399.12 99.5748C1400.01 100.038 1400.92 100.221 1401.84 100.122C1402.77 100.026 1403.54 99.845 1404.17 99.5784C1404.79 99.3119 1405.64 98.8712 1406.7 98.2564C1407.76 97.6417 1408.6 97.1542 1409.22 96.794C1409.84 96.4313 1410.48 96.0819 1411.14 95.7457C1411.8 95.4095 1412.58 95.0145 1413.48 94.5606C1414.39 94.1067 1415.34 93.7585 1416.35 93.516C1417.36 93.2734 1418.52 93.2386 1419.82 93.4115C1421.12 93.582 1422.1 93.8366 1422.77 94.1752C1423.44 94.5162 1424.07 94.9592 1424.66 95.5044C1425.25 96.0519 1425.89 96.7603 1426.58 97.6297C1427.27 98.4966 1427.87 99.3707 1428.4 100.252C1428.92 101.133 1429.38 101.938 1429.78 102.666C1430.18 103.393 1430.75 103.567 1431.47 103.188C1432.2 102.808 1433.07 102.264 1434.09 101.556C1435.11 100.85 1435.91 100.268 1436.51 99.809C1437.11 99.3503 1437.84 98.8556 1438.68 98.3249C1439.53 97.7942 1440.24 97.3559 1440.82 97.0101C1441.39 96.6619 1442.2 96.2668 1443.26 95.825C1444.32 95.3807 1445.59 95.1033 1447.08 94.9929C1448.57 94.8824 1449.73 94.9376 1450.56 95.1586C1451.39 95.3819 1452.18 95.6713 1452.92 96.0267C1453.65 96.3821 1454.33 96.7819 1454.96 97.2262C1455.6 97.6705 1456.24 98.152 1456.9 98.6707C1457.56 99.1894 1458.94 99.1354 1461.05 98.5086C1463.16 97.8818 1464.96 97.4183 1466.46 97.1182C1467.95 96.8156 1469.03 96.5382 1469.7 96.286C1470.37 96.0339 1471.15 95.7385 1472.05 95.3999C1472.95 95.0637 1473.95 94.7803 1475.06 94.5498C1476.18 94.3217 1476.89 94.2076 1477.19 94.2076C1477.5 94.21 1477.8 94.2448 1478.09 94.312C1478.38 94.3817 1478.65 94.4825 1478.9 94.6146C1479.14 94.7467 1479.35 94.9016 1479.52 95.0793C1479.69 95.2594 1479.82 95.4527 1479.9 95.6593C1479.98 95.8682 1480.01 96.0795 1480 96.2932C1479.98 96.5094 1479.91 96.7171 1479.8 96.9164C1479.68 97.1182 1479.52 97.3007 1479.32 97.464C1479.12 97.6273 1478.89 97.7641 1478.63 97.8746C1478.36 97.9851 1478.08 98.0631 1477.78 98.1088C1477.48 98.1544 1477.18 98.1652 1476.87 98.1412C1476.57 98.1172 1476.27 98.0595 1476 97.9683C1475.72 97.877 1475.47 97.7569 1475.25 97.608C1475.03 97.4592 1474.84 97.2899 1474.7 97.1001C1474.56 96.908 1474.46 96.7063 1474.41 96.495C1474.36 96.2812 1474.36 96.0687 1474.41 95.8574C1474.46 95.6437 1474.56 95.4419 1474.71 95.2522C1474.85 95.0625 1475.04 94.8932 1475.26 94.7443C1475.48 94.5978 1475.74 94.4789 1476.01 94.3877C1476.29 94.2988 1476.59 94.2424 1476.89 94.2184C1477.2 94.1968 1477.5 94.2088 1477.8 94.2544C1478.1 94.3024 1478.38 94.3829 1478.65 94.4958C1478.91 94.6062 1479.14 94.7443 1479.33 94.91C1479.53 95.0733 1479.69 95.2558 1479.8 95.4575C1479.91 95.6593 1479.98 95.867 1480 96.0807C1480.01 96.2969 1479.98 96.5082 1479.89 96.7147C1479.81 96.9236 1479.68 97.117 1479.51 97.2947C1479.33 97.4724 1479.12 97.6261 1478.88 97.7557C1478.64 97.8854 1478.37 97.9851 1478.08 98.0547C1477.79 98.122 1477.64 98.1556 1477.64 98.1556C1477.64 98.1556 1477.28 98.2012 1476.55 98.2925C1475.83 98.3813 1475.04 98.535 1474.2 98.7535C1473.36 98.9721 1472.52 99.2158 1471.68 99.4848C1470.85 99.7562 1469.73 100.122 1468.33 100.583C1466.94 101.045 1464.59 101.68 1461.29 102.489C1457.98 103.301 1455.79 103.512 1454.7 103.123C1453.61 102.734 1452.77 102.29 1452.2 101.79C1451.62 101.291 1450.98 100.808 1450.29 100.342C1449.59 99.8738 1448.79 99.5929 1447.88 99.4992C1446.97 99.4055 1446.13 99.5652 1445.34 99.9783C1444.55 100.391 1443.84 100.836 1443.19 101.311C1442.54 101.787 1441.93 102.28 1441.34 102.792C1440.75 103.306 1440.15 103.81 1439.55 104.305C1438.94 104.802 1438.15 105.364 1437.19 105.99C1436.23 106.62 1435.36 107.143 1434.58 107.561C1433.8 107.981 1432.99 108.302 1432.14 108.523C1431.29 108.746 1430.45 108.834 1429.63 108.786C1428.81 108.738 1428.07 108.568 1427.42 108.278C1426.76 107.99 1426.21 107.598 1425.75 107.103C1425.3 106.609 1424.84 106.01 1424.4 105.306C1423.95 104.602 1423.54 103.872 1423.15 103.116C1422.77 102.357 1422.36 101.61 1421.93 100.875C1421.5 100.14 1420.94 99.4103 1420.25 98.6851C1419.55 97.9623 1418.82 97.5924 1418.05 97.5756C1417.28 97.5612 1416.32 97.8194 1415.16 98.3501C1414 98.8808 1413.1 99.3191 1412.46 99.6649C1411.81 100.008 1411.14 100.366 1410.43 100.738C1409.73 101.113 1409.04 101.448 1408.38 101.743C1407.71 102.039 1406.88 102.355 1405.88 102.691C1404.89 103.029 1403.84 103.248 1402.73 103.346C1401.62 103.445 1400.57 103.363 1399.55 103.101C1398.54 102.84 1397.51 102.441 1396.44 101.905C1395.37 101.372 1393.87 100.52 1391.96 99.3479C1390.05 98.1784 1388.7 97.4219 1387.91 97.0785C1387.12 96.7351 1386.19 96.3509 1385.13 95.9258C1384.07 95.5008 1383.04 95.5464 1382.04 96.0627C1381.03 96.579 1380.22 97.0521 1379.59 97.482C1378.96 97.9142 1378.32 98.3513 1377.68 98.7932C1377.04 99.2374 1376.36 99.7117 1375.65 100.216C1374.94 100.723 1374 101.406 1372.84 102.266C1371.67 103.125 1369.66 104.39 1366.81 106.059C1363.95 107.725 1362.07 108.549 1361.18 108.53C1360.29 108.508 1359.31 108.244 1358.25 107.737C1357.18 107.233 1356.24 106.597 1355.43 105.828C1354.62 105.06 1353.9 104.326 1353.27 103.627C1352.65 102.926 1351.99 102.231 1351.29 101.542C1350.59 100.855 1349.77 100.283 1348.82 99.827C1347.87 99.3683 1347.02 99.3251 1346.28 99.6973C1345.54 100.07 1344.81 100.551 1344.09 101.142C1343.36 101.735 1342.75 102.263 1342.24 102.727C1341.73 103.188 1340.95 103.777 1339.9 104.495C1338.85 105.213 1337.8 105.761 1336.75 106.138C1335.7 106.517 1334.56 106.615 1333.35 106.43C1332.13 106.242 1331 105.986 1329.95 105.659C1328.89 105.33 1327.34 104.812 1325.28 104.106C1323.23 103.403 1321.67 103.417 1320.6 104.15C1319.54 104.884 1317.56 106.471 1314.69 108.908C1311.81 111.346 1309.98 113.024 1309.2 113.944C1308.42 114.861 1307.97 115.368 1307.85 115.464C1307.74 115.558 1307.61 115.641 1307.46 115.713C1307.32 115.785 1307.17 115.844 1307 115.889C1306.83 115.937 1306.66 115.97 1306.49 115.986C1306.31 116.003 1306.14 116.004 1305.97 115.99C1305.79 115.978 1305.62 115.95 1305.45 115.907C1305.28 115.866 1305.13 115.811 1304.98 115.741C1304.83 115.672 1304.69 115.591 1304.57 115.5C1304.46 115.409 1304.35 115.308 1304.27 115.198C1304.19 115.089 1304.12 114.974 1304.08 114.852C1304.03 114.732 1304 114.609 1304 114.484C1304 114.364 1304.02 114.243 1304.06 114.12C1304.1 113.998 1304.16 113.882 1304.24 113.771C1304.32 113.661 1304.36 113.605 1304.36 113.605Z" fill="#E9B902"/>
<path d="M1304.36 113.605C1304.36 113.605 1304.81 113.174 1305.72 112.312C1306.63 111.452 1308.61 109.786 1311.67 107.312C1314.72 104.836 1317.19 103.17 1319.07 102.313C1320.95 101.453 1323.18 101.371 1325.76 102.068C1328.34 102.762 1330.16 103.242 1331.21 103.508C1332.27 103.775 1333.18 103.791 1333.94 103.555C1334.7 103.32 1335.51 102.844 1336.38 102.129C1337.24 101.416 1338.31 100.533 1339.6 99.4812C1340.88 98.4293 1341.96 97.6105 1342.84 97.0245C1343.71 96.4409 1344.51 96.0075 1345.24 95.7241C1345.96 95.4431 1346.84 95.2618 1347.87 95.1802C1348.9 95.0985 1350.03 95.2594 1351.24 95.6629C1352.46 96.0639 1353.38 96.5166 1354.01 97.0209C1354.64 97.5228 1355.19 98.0055 1355.65 98.469C1356.11 98.9301 1356.69 99.4812 1357.37 100.122C1358.06 100.764 1358.76 101.462 1359.48 102.219C1360.2 102.975 1360.91 103.526 1361.62 103.872C1362.33 104.218 1363.46 103.757 1365.01 102.489C1366.56 101.221 1367.99 100.227 1369.31 99.5064C1370.62 98.786 1371.6 98.194 1372.22 97.7305C1372.84 97.2694 1373.47 96.8072 1374.11 96.3437C1374.74 95.8802 1375.36 95.4239 1375.98 94.9748C1376.59 94.5258 1377.25 94.1019 1377.93 93.7033C1378.62 93.3046 1379.63 92.8496 1380.96 92.338C1382.29 91.8241 1383.96 91.8962 1385.97 92.5542C1387.98 93.2146 1389.43 93.7297 1390.32 94.0995C1391.21 94.4717 1392.67 95.3615 1394.71 96.7687C1396.76 98.176 1398.22 99.1114 1399.12 99.5748C1400.01 100.038 1400.92 100.221 1401.84 100.122C1402.77 100.026 1403.54 99.845 1404.17 99.5784C1404.79 99.3119 1405.64 98.8712 1406.7 98.2564C1407.76 97.6417 1408.6 97.1542 1409.22 96.794C1409.84 96.4313 1410.48 96.0819 1411.14 95.7457C1411.8 95.4095 1412.58 95.0145 1413.48 94.5606C1414.39 94.1067 1415.34 93.7585 1416.35 93.516C1417.36 93.2734 1418.52 93.2386 1419.82 93.4115C1421.12 93.582 1422.1 93.8366 1422.77 94.1752C1423.44 94.5162 1424.07 94.9592 1424.66 95.5044C1425.25 96.0519 1425.89 96.7603 1426.58 97.6297C1427.27 98.4966 1427.87 99.3707 1428.4 100.252C1428.92 101.133 1429.38 101.938 1429.78 102.666C1430.18 103.393 1430.75 103.567 1431.47 103.188C1432.2 102.808 1433.07 102.264 1434.09 101.556C1435.11 100.85 1435.91 100.268 1436.51 99.809C1437.11 99.3503 1437.84 98.8556 1438.68 98.3249C1439.53 97.7942 1440.24 97.3559 1440.82 97.0101C1441.39 96.6619 1442.2 96.2668 1443.26 95.825C1444.32 95.3807 1445.59 95.1033 1447.08 94.9929C1448.57 94.8824 1449.73 94.9376 1450.56 95.1586C1451.39 95.3819 1452.18 95.6713 1452.92 96.0267C1453.65 96.3821 1454.33 96.7819 1454.96 97.2262C1455.6 97.6705 1456.24 98.152 1456.9 98.6707C1457.56 99.1894 1458.94 99.1354 1461.05 98.5086C1463.16 97.8818 1464.96 97.4183 1466.46 97.1182C1467.95 96.8156 1469.03 96.5382 1469.7 96.286C1470.37 96.0339 1471.15 95.7385 1472.05 95.3999C1472.95 95.0637 1473.95 94.7803 1475.06 94.5498C1476.18 94.3217 1476.89 94.2076 1477.19 94.2076C1477.5 94.21 1477.8 94.2448 1478.09 94.312C1478.38 94.3817 1478.65 94.4825 1478.9 94.6146C1479.14 94.7467 1479.35 94.9016 1479.52 95.0793C1479.69 95.2594 1479.82 95.4527 1479.9 95.6593C1479.98 95.8682 1480.01 96.0795 1480 96.2932C1479.98 96.5094 1479.91 96.7171 1479.8 96.9164C1479.68 97.1182 1479.52 97.3007 1479.32 97.464C1479.12 97.6273 1478.89 97.7641 1478.63 97.8746C1478.36 97.9851 1478.08 98.0631 1477.78 98.1088C1477.48 98.1544 1477.18 98.1652 1476.87 98.1412C1476.57 98.1172 1476.27 98.0595 1476 97.9683C1475.72 97.877 1475.47 97.7569 1475.25 97.608C1475.03 97.4592 1474.84 97.2899 1474.7 97.1001C1474.56 96.908 1474.46 96.7063 1474.41 96.495C1474.36 96.2812 1474.36 96.0687 1474.41 95.8574C1474.46 95.6437 1474.56 95.4419 1474.71 95.2522C1474.85 95.0625 1475.04 94.8932 1475.26 94.7443C1475.48 94.5978 1475.74 94.4789 1476.01 94.3877C1476.29 94.2988 1476.59 94.2424 1476.89 94.2184C1477.2 94.1968 1477.5 94.2088 1477.8 94.2544C1478.1 94.3024 1478.38 94.3829 1478.65 94.4958C1478.91 94.6062 1479.14 94.7443 1479.33 94.91C1479.53 95.0733 1479.69 95.2558 1479.8 95.4575C1479.91 95.6593 1479.98 95.867 1480 96.0807C1480.01 96.2969 1479.98 96.5082 1479.89 96.7147C1479.81 96.9236 1479.68 97.117 1479.51 97.2947C1479.33 97.4724 1479.12 97.6261 1478.88 97.7557C1478.64 97.8854 1478.37 97.9851 1478.08 98.0547C1477.79 98.122 1477.64 98.1556 1477.64 98.1556C1477.64 98.1556 1477.28 98.2012 1476.55 98.2925C1475.83 98.3813 1475.04 98.535 1474.2 98.7535C1473.36 98.9721 1472.52 99.2158 1471.68 99.4848C1470.85 99.7562 1469.73 100.122 1468.33 100.583C1466.94 101.045 1464.59 101.68 1461.29 102.489C1457.98 103.301 1455.79 103.512 1454.7 103.123C1453.61 102.734 1452.77 102.29 1452.2 101.79C1451.62 101.291 1450.98 100.808 1450.29 100.342C1449.59 99.8738 1448.79 99.5929 1447.88 99.4992C1446.97 99.4055 1446.13 99.5652 1445.34 99.9783C1444.55 100.391 1443.84 100.836 1443.19 101.311C1442.54 101.787 1441.93 102.28 1441.34 102.792C1440.75 103.306 1440.15 103.81 1439.55 104.305C1438.94 104.802 1438.15 105.364 1437.19 105.99C1436.23 106.62 1435.36 107.143 1434.58 107.561C1433.8 107.981 1432.99 108.302 1432.14 108.523C1431.29 108.746 1430.45 108.834 1429.63 108.786C1428.81 108.738 1428.07 108.568 1427.42 108.278C1426.76 107.99 1426.21 107.598 1425.75 107.103C1425.3 106.609 1424.84 106.01 1424.4 105.306C1423.95 104.602 1423.54 103.872 1423.15 103.116C1422.77 102.357 1422.36 101.61 1421.93 100.875C1421.5 100.14 1420.94 99.4103 1420.25 98.6851C1419.55 97.9623 1418.82 97.5924 1418.05 97.5756C1417.28 97.5612 1416.32 97.8194 1415.16 98.3501C1414 98.8808 1413.1 99.3191 1412.46 99.6649C1411.81 100.008 1411.14 100.366 1410.43 100.738C1409.73 101.113 1409.04 101.448 1408.38 101.743C1407.71 102.039 1406.88 102.355 1405.88 102.691C1404.89 103.029 1403.84 103.248 1402.73 103.346C1401.62 103.445 1400.57 103.363 1399.55 103.101C1398.54 102.84 1397.51 102.441 1396.44 101.905C1395.37 101.372 1393.87 100.52 1391.96 99.3479C1390.05 98.1784 1388.7 97.4219 1387.91 97.0785C1387.12 96.7351 1386.19 96.3509 1385.13 95.9258C1384.07 95.5008 1383.04 95.5464 1382.04 96.0627C1381.03 96.579 1380.22 97.0521 1379.59 97.482C1378.96 97.9142 1378.32 98.3513 1377.68 98.7932C1377.04 99.2374 1376.36 99.7117 1375.65 100.216C1374.94 100.723 1374 101.406 1372.84 102.266C1371.67 103.125 1369.66 104.39 1366.81 106.059C1363.95 107.725 1362.07 108.549 1361.18 108.53C1360.29 108.508 1359.31 108.244 1358.25 107.737C1357.18 107.233 1356.24 106.597 1355.43 105.828C1354.62 105.06 1353.9 104.326 1353.27 103.627C1352.65 102.926 1351.99 102.231 1351.29 101.542C1350.59 100.855 1349.77 100.283 1348.82 99.827C1347.87 99.3683 1347.02 99.3251 1346.28 99.6973C1345.54 100.07 1344.81 100.551 1344.09 101.142C1343.36 101.735 1342.75 102.263 1342.24 102.727C1341.73 103.188 1340.95 103.777 1339.9 104.495C1338.85 105.213 1337.8 105.761 1336.75 106.138C1335.7 106.517 1334.56 106.615 1333.35 106.43C1332.13 106.242 1331 105.986 1329.95 105.659C1328.89 105.33 1327.34 104.812 1325.28 104.106C1323.23 103.403 1321.67 103.417 1320.6 104.15C1319.54 104.884 1317.56 106.471 1314.69 108.908C1311.81 111.346 1309.98 113.024 1309.2 113.944C1308.42 114.861 1307.97 115.368 1307.85 115.464C1307.74 115.558 1307.61 115.641 1307.46 115.713C1307.32 115.785 1307.17 115.844 1307 115.889C1306.83 115.937 1306.66 115.97 1306.49 115.986C1306.31 116.003 1306.14 116.004 1305.97 115.99C1305.79 115.978 1305.62 115.95 1305.45 115.907C1305.28 115.866 1305.13 115.811 1304.98 115.741C1304.83 115.672 1304.69 115.591 1304.57 115.5C1304.46 115.409 1304.35 115.308 1304.27 115.198C1304.19 115.089 1304.12 114.974 1304.08 114.852C1304.03 114.732 1304 114.609 1304 114.484C1304 114.364 1304.02 114.243 1304.06 114.12C1304.1 113.998 1304.16 113.882 1304.24 113.771C1304.32 113.661 1304.36 113.605 1304.36 113.605Z" stroke="white" stroke-width="12" mask="url(#path-1-outside-1_188_4814)"/>
<mask id="path-2-outside-2_188_4814" maskUnits="userSpaceOnUse" x="-64" y="566" width="188" height="37" fill="black">
<rect fill="white" x="-64" y="566" width="188" height="37"/>
<path d="M-57.6407 594.605C-57.6407 594.605 -57.1873 594.174 -56.2806 593.312C-55.3738 592.452 -53.391 590.786 -50.332 588.312C-47.2764 585.836 -44.8093 584.17 -42.9308 583.313C-41.0523 582.453 -38.823 582.371 -36.2431 583.068C-33.6631 583.762 -31.8445 584.242 -30.7871 584.508C-29.7264 584.775 -28.818 584.791 -28.0618 584.555C-27.3021 584.32 -26.4895 583.844 -25.6238 583.129C-24.7615 582.416 -23.6871 581.533 -22.4005 580.481C-21.1174 579.429 -20.0379 578.61 -19.1619 578.024C-18.2859 577.441 -17.487 577.007 -16.765 576.724C-16.0396 576.443 -15.1619 576.262 -14.132 576.18C-13.0986 576.099 -11.9746 576.259 -10.7599 576.663C-9.54177 577.064 -8.6179 577.517 -7.98831 578.021C-7.35872 578.523 -6.81295 579.005 -6.35102 579.469C-5.88909 579.93 -5.31424 580.481 -4.62648 581.122C-3.93871 581.764 -3.23555 582.462 -2.51699 583.219C-1.80186 583.975 -1.08843 584.526 -0.376717 584.872C0.331577 585.218 1.46074 584.757 3.01078 583.489C4.56081 582.221 5.99279 581.227 7.30673 580.506C8.62409 579.786 9.59586 579.194 10.222 578.731C10.8448 578.269 11.4727 577.807 12.1057 577.344C12.7387 576.88 13.3632 576.424 13.9791 575.975C14.595 575.526 15.2468 575.102 15.9346 574.703C16.6189 574.305 17.6266 573.85 18.9576 573.338C20.2887 572.824 21.9602 572.896 23.9722 573.554C25.9841 574.215 27.4332 574.73 28.3195 575.1C29.2057 575.472 30.6702 576.361 32.7129 577.769C34.7557 579.176 36.2236 580.111 37.1167 580.575C38.0097 581.038 38.9182 581.221 39.842 581.122C40.7659 581.026 41.5409 580.845 42.1671 580.578C42.7933 580.312 43.6367 579.871 44.6975 579.256C45.7616 578.642 46.6033 578.154 47.2227 577.794C47.842 577.431 48.4819 577.082 49.1422 576.746C49.8026 576.41 50.5828 576.014 51.4827 575.561C52.386 575.107 53.3424 574.759 54.3518 574.516C55.3612 574.273 56.516 574.239 57.8163 574.411C59.1165 574.582 60.1003 574.837 60.7675 575.175C61.4382 575.516 62.0678 575.959 62.6563 576.504C63.2482 577.052 63.8881 577.76 64.5759 578.63C65.2671 579.497 65.8744 580.371 66.3979 581.252C66.918 582.133 67.38 582.938 67.7837 583.666C68.1841 584.393 68.7469 584.567 69.4723 584.188C70.2012 583.808 71.0737 583.264 72.09 582.556C73.1062 581.85 73.9137 581.268 74.5125 580.809C75.1147 580.35 75.8384 579.856 76.6836 579.325C77.5322 578.794 78.2439 578.356 78.8187 578.01C79.3901 577.662 80.2045 577.267 81.2618 576.825C82.3191 576.381 83.592 576.103 85.0805 575.993C86.5655 575.882 87.7254 575.938 88.5603 576.159C89.3918 576.382 90.1771 576.671 90.9162 577.027C91.6518 577.382 92.3345 577.782 92.9641 578.226C93.5971 578.67 94.2438 579.152 94.9042 579.671C95.5612 580.189 96.9435 580.135 99.0513 579.509C101.159 578.882 102.961 578.418 104.456 578.118C105.948 577.816 107.029 577.538 107.7 577.286C108.37 577.034 109.154 576.739 110.05 576.4C110.947 576.064 111.951 575.78 113.063 575.55C114.179 575.322 114.889 575.208 115.193 575.208C115.501 575.21 115.801 575.245 116.091 575.312C116.382 575.382 116.651 575.483 116.897 575.615C117.14 575.747 117.347 575.902 117.518 576.079C117.689 576.259 117.816 576.453 117.898 576.659C117.98 576.868 118.013 577.08 117.996 577.293C117.975 577.509 117.908 577.717 117.795 577.916C117.679 578.118 117.522 578.301 117.323 578.464C117.125 578.627 116.894 578.764 116.63 578.875C116.363 578.985 116.081 579.063 115.783 579.109C115.482 579.154 115.18 579.165 114.875 579.141C114.567 579.117 114.274 579.06 113.997 578.968C113.72 578.877 113.47 578.757 113.248 578.608C113.026 578.459 112.842 578.29 112.699 578.1C112.555 577.908 112.459 577.706 112.411 577.495C112.363 577.281 112.363 577.069 112.411 576.857C112.463 576.644 112.562 576.442 112.709 576.252C112.853 576.063 113.036 575.893 113.258 575.744C113.484 575.598 113.736 575.479 114.013 575.388C114.293 575.299 114.586 575.242 114.89 575.218C115.198 575.197 115.501 575.209 115.799 575.254C116.1 575.302 116.382 575.383 116.646 575.496C116.909 575.606 117.138 575.744 117.333 575.91C117.532 576.073 117.688 576.256 117.801 576.458C117.913 576.659 117.978 576.867 117.996 577.081C118.009 577.297 117.975 577.508 117.893 577.715C117.811 577.924 117.682 578.117 117.508 578.295C117.333 578.472 117.125 578.626 116.882 578.756C116.635 578.885 116.367 578.985 116.076 579.055C115.785 579.122 115.64 579.156 115.64 579.156C115.64 579.156 115.277 579.201 114.552 579.292C113.826 579.381 113.043 579.535 112.201 579.754C111.359 579.972 110.519 580.216 109.681 580.485C108.846 580.756 107.73 581.122 106.334 581.583C104.942 582.045 102.593 582.68 99.2874 583.489C95.982 584.301 93.7853 584.512 92.6972 584.123C91.6056 583.734 90.7725 583.29 90.1976 582.79C89.6194 582.291 88.9829 581.808 88.2883 581.342C87.5937 580.874 86.7913 580.593 85.8811 580.499C84.9744 580.406 84.1275 580.565 83.3405 580.978C82.5535 581.391 81.8367 581.836 81.19 582.311C80.5433 582.787 79.9256 583.28 79.3371 583.792C78.7486 584.306 78.1515 584.81 77.5459 585.305C76.9402 585.802 76.1549 586.364 75.19 586.99C74.2285 587.62 73.3594 588.143 72.5827 588.561C71.8025 588.981 70.9882 589.302 70.1396 589.523C69.291 589.746 68.4544 589.834 67.6297 589.786C66.8051 589.738 66.0677 589.568 65.4176 589.278C64.7641 588.99 64.2098 588.598 63.7547 588.103C63.2962 587.609 62.8445 587.01 62.3997 586.306C61.9548 585.602 61.5391 584.872 61.1525 584.116C60.7658 583.357 60.3586 582.61 59.9309 581.875C59.5032 581.14 58.942 580.41 58.2474 579.685C57.5528 578.962 56.8206 578.592 56.0507 578.576C55.2842 578.561 54.321 578.819 53.161 579.35C52.0045 579.881 51.1029 580.319 50.4562 580.665C49.8129 581.008 49.1388 581.366 48.434 581.738C47.7291 582.113 47.043 582.448 46.3758 582.743C45.712 583.039 44.8805 583.355 43.8814 583.691C42.8857 584.029 41.8352 584.248 40.73 584.346C39.6248 584.445 38.5657 584.363 37.5529 584.101C36.5435 583.84 35.505 583.441 34.4375 582.905C33.3665 582.372 31.8746 581.52 29.9619 580.348C28.0491 579.178 26.6976 578.422 25.9072 578.079C25.1167 577.735 24.1912 577.351 23.1304 576.926C22.0697 576.501 21.038 576.546 20.0355 577.063C19.0329 577.579 18.2169 578.052 17.5873 578.482C16.9577 578.914 16.3229 579.351 15.6831 579.793C15.0398 580.237 14.3623 580.712 13.6506 581.216C12.9389 581.723 12.0013 582.406 10.8379 583.266C9.67113 584.125 7.66088 585.39 4.80717 587.059C1.95005 588.725 0.0749512 589.549 -0.818115 589.53C-1.71118 589.508 -2.68979 589.244 -3.75394 588.737C-4.8181 588.233 -5.75564 587.597 -6.56659 586.828C-7.38095 586.06 -8.10122 585.326 -8.7274 584.627C-9.35015 583.926 -10.0122 583.231 -10.7137 582.542C-11.4117 581.855 -12.2346 581.283 -13.1825 580.827C-14.1303 580.368 -14.9754 580.325 -15.7179 580.697C-16.4605 581.07 -17.1927 581.551 -17.9147 582.142C-18.6367 582.735 -19.2526 583.263 -19.7624 583.727C-20.2722 584.188 -21.0524 584.777 -22.1029 585.495C-23.1533 586.213 -24.2038 586.761 -25.2542 587.138C-26.3047 587.517 -27.4373 587.615 -28.652 587.43C-29.8701 587.242 -31.0044 586.986 -32.0549 586.659C-33.1088 586.33 -34.6622 585.812 -36.7153 585.106C-38.7717 584.403 -40.332 584.417 -41.3962 585.15C-42.4637 585.884 -44.4363 587.471 -47.314 589.908C-50.1882 592.346 -52.0171 594.024 -52.8007 594.944C-53.5843 595.861 -54.0325 596.368 -54.1454 596.464C-54.2618 596.558 -54.3918 596.641 -54.5355 596.713C-54.6792 596.785 -54.8349 596.844 -55.0026 596.889C-55.1668 596.937 -55.3362 596.97 -55.5107 596.986C-55.6886 597.003 -55.8631 597.004 -56.0342 596.99C-56.2122 596.978 -56.385 596.95 -56.5526 596.907C-56.7169 596.866 -56.8725 596.811 -57.0197 596.741C-57.1702 596.672 -57.3054 596.591 -57.4252 596.5C-57.5449 596.409 -57.6459 596.308 -57.728 596.198C-57.8135 596.089 -57.8785 595.974 -57.923 595.852C-57.9709 595.732 -57.9966 595.609 -58 595.484C-58 595.364 -57.9812 595.243 -57.9435 595.12C-57.9025 594.998 -57.8426 594.882 -57.7639 594.771C-57.6818 594.661 -57.6407 594.605 -57.6407 594.605Z"/>
</mask>
<path d="M-57.6407 594.605C-57.6407 594.605 -57.1873 594.174 -56.2806 593.312C-55.3738 592.452 -53.391 590.786 -50.332 588.312C-47.2764 585.836 -44.8093 584.17 -42.9308 583.313C-41.0523 582.453 -38.823 582.371 -36.2431 583.068C-33.6631 583.762 -31.8445 584.242 -30.7871 584.508C-29.7264 584.775 -28.818 584.791 -28.0618 584.555C-27.3021 584.32 -26.4895 583.844 -25.6238 583.129C-24.7615 582.416 -23.6871 581.533 -22.4005 580.481C-21.1174 579.429 -20.0379 578.61 -19.1619 578.024C-18.2859 577.441 -17.487 577.007 -16.765 576.724C-16.0396 576.443 -15.1619 576.262 -14.132 576.18C-13.0986 576.099 -11.9746 576.259 -10.7599 576.663C-9.54177 577.064 -8.6179 577.517 -7.98831 578.021C-7.35872 578.523 -6.81295 579.005 -6.35102 579.469C-5.88909 579.93 -5.31424 580.481 -4.62648 581.122C-3.93871 581.764 -3.23555 582.462 -2.51699 583.219C-1.80186 583.975 -1.08843 584.526 -0.376717 584.872C0.331577 585.218 1.46074 584.757 3.01078 583.489C4.56081 582.221 5.99279 581.227 7.30673 580.506C8.62409 579.786 9.59586 579.194 10.222 578.731C10.8448 578.269 11.4727 577.807 12.1057 577.344C12.7387 576.88 13.3632 576.424 13.9791 575.975C14.595 575.526 15.2468 575.102 15.9346 574.703C16.6189 574.305 17.6266 573.85 18.9576 573.338C20.2887 572.824 21.9602 572.896 23.9722 573.554C25.9841 574.215 27.4332 574.73 28.3195 575.1C29.2057 575.472 30.6702 576.361 32.7129 577.769C34.7557 579.176 36.2236 580.111 37.1167 580.575C38.0097 581.038 38.9182 581.221 39.842 581.122C40.7659 581.026 41.5409 580.845 42.1671 580.578C42.7933 580.312 43.6367 579.871 44.6975 579.256C45.7616 578.642 46.6033 578.154 47.2227 577.794C47.842 577.431 48.4819 577.082 49.1422 576.746C49.8026 576.41 50.5828 576.014 51.4827 575.561C52.386 575.107 53.3424 574.759 54.3518 574.516C55.3612 574.273 56.516 574.239 57.8163 574.411C59.1165 574.582 60.1003 574.837 60.7675 575.175C61.4382 575.516 62.0678 575.959 62.6563 576.504C63.2482 577.052 63.8881 577.76 64.5759 578.63C65.2671 579.497 65.8744 580.371 66.3979 581.252C66.918 582.133 67.38 582.938 67.7837 583.666C68.1841 584.393 68.7469 584.567 69.4723 584.188C70.2012 583.808 71.0737 583.264 72.09 582.556C73.1062 581.85 73.9137 581.268 74.5125 580.809C75.1147 580.35 75.8384 579.856 76.6836 579.325C77.5322 578.794 78.2439 578.356 78.8187 578.01C79.3901 577.662 80.2045 577.267 81.2618 576.825C82.3191 576.381 83.592 576.103 85.0805 575.993C86.5655 575.882 87.7254 575.938 88.5603 576.159C89.3918 576.382 90.1771 576.671 90.9162 577.027C91.6518 577.382 92.3345 577.782 92.9641 578.226C93.5971 578.67 94.2438 579.152 94.9042 579.671C95.5612 580.189 96.9435 580.135 99.0513 579.509C101.159 578.882 102.961 578.418 104.456 578.118C105.948 577.816 107.029 577.538 107.7 577.286C108.37 577.034 109.154 576.739 110.05 576.4C110.947 576.064 111.951 575.78 113.063 575.55C114.179 575.322 114.889 575.208 115.193 575.208C115.501 575.21 115.801 575.245 116.091 575.312C116.382 575.382 116.651 575.483 116.897 575.615C117.14 575.747 117.347 575.902 117.518 576.079C117.689 576.259 117.816 576.453 117.898 576.659C117.98 576.868 118.013 577.08 117.996 577.293C117.975 577.509 117.908 577.717 117.795 577.916C117.679 578.118 117.522 578.301 117.323 578.464C117.125 578.627 116.894 578.764 116.63 578.875C116.363 578.985 116.081 579.063 115.783 579.109C115.482 579.154 115.18 579.165 114.875 579.141C114.567 579.117 114.274 579.06 113.997 578.968C113.72 578.877 113.47 578.757 113.248 578.608C113.026 578.459 112.842 578.29 112.699 578.1C112.555 577.908 112.459 577.706 112.411 577.495C112.363 577.281 112.363 577.069 112.411 576.857C112.463 576.644 112.562 576.442 112.709 576.252C112.853 576.063 113.036 575.893 113.258 575.744C113.484 575.598 113.736 575.479 114.013 575.388C114.293 575.299 114.586 575.242 114.89 575.218C115.198 575.197 115.501 575.209 115.799 575.254C116.1 575.302 116.382 575.383 116.646 575.496C116.909 575.606 117.138 575.744 117.333 575.91C117.532 576.073 117.688 576.256 117.801 576.458C117.913 576.659 117.978 576.867 117.996 577.081C118.009 577.297 117.975 577.508 117.893 577.715C117.811 577.924 117.682 578.117 117.508 578.295C117.333 578.472 117.125 578.626 116.882 578.756C116.635 578.885 116.367 578.985 116.076 579.055C115.785 579.122 115.64 579.156 115.64 579.156C115.64 579.156 115.277 579.201 114.552 579.292C113.826 579.381 113.043 579.535 112.201 579.754C111.359 579.972 110.519 580.216 109.681 580.485C108.846 580.756 107.73 581.122 106.334 581.583C104.942 582.045 102.593 582.68 99.2874 583.489C95.982 584.301 93.7853 584.512 92.6972 584.123C91.6056 583.734 90.7725 583.29 90.1976 582.79C89.6194 582.291 88.9829 581.808 88.2883 581.342C87.5937 580.874 86.7913 580.593 85.8811 580.499C84.9744 580.406 84.1275 580.565 83.3405 580.978C82.5535 581.391 81.8367 581.836 81.19 582.311C80.5433 582.787 79.9256 583.28 79.3371 583.792C78.7486 584.306 78.1515 584.81 77.5459 585.305C76.9402 585.802 76.1549 586.364 75.19 586.99C74.2285 587.62 73.3594 588.143 72.5827 588.561C71.8025 588.981 70.9882 589.302 70.1396 589.523C69.291 589.746 68.4544 589.834 67.6297 589.786C66.8051 589.738 66.0677 589.568 65.4176 589.278C64.7641 588.99 64.2098 588.598 63.7547 588.103C63.2962 587.609 62.8445 587.01 62.3997 586.306C61.9548 585.602 61.5391 584.872 61.1525 584.116C60.7658 583.357 60.3586 582.61 59.9309 581.875C59.5032 581.14 58.942 580.41 58.2474 579.685C57.5528 578.962 56.8206 578.592 56.0507 578.576C55.2842 578.561 54.321 578.819 53.161 579.35C52.0045 579.881 51.1029 580.319 50.4562 580.665C49.8129 581.008 49.1388 581.366 48.434 581.738C47.7291 582.113 47.043 582.448 46.3758 582.743C45.712 583.039 44.8805 583.355 43.8814 583.691C42.8857 584.029 41.8352 584.248 40.73 584.346C39.6248 584.445 38.5657 584.363 37.5529 584.101C36.5435 583.84 35.505 583.441 34.4375 582.905C33.3665 582.372 31.8746 581.52 29.9619 580.348C28.0491 579.178 26.6976 578.422 25.9072 578.079C25.1167 577.735 24.1912 577.351 23.1304 576.926C22.0697 576.501 21.038 576.546 20.0355 577.063C19.0329 577.579 18.2169 578.052 17.5873 578.482C16.9577 578.914 16.3229 579.351 15.6831 579.793C15.0398 580.237 14.3623 580.712 13.6506 581.216C12.9389 581.723 12.0013 582.406 10.8379 583.266C9.67113 584.125 7.66088 585.39 4.80717 587.059C1.95005 588.725 0.0749512 589.549 -0.818115 589.53C-1.71118 589.508 -2.68979 589.244 -3.75394 588.737C-4.8181 588.233 -5.75564 587.597 -6.56659 586.828C-7.38095 586.06 -8.10122 585.326 -8.7274 584.627C-9.35015 583.926 -10.0122 583.231 -10.7137 582.542C-11.4117 581.855 -12.2346 581.283 -13.1825 580.827C-14.1303 580.368 -14.9754 580.325 -15.7179 580.697C-16.4605 581.07 -17.1927 581.551 -17.9147 582.142C-18.6367 582.735 -19.2526 583.263 -19.7624 583.727C-20.2722 584.188 -21.0524 584.777 -22.1029 585.495C-23.1533 586.213 -24.2038 586.761 -25.2542 587.138C-26.3047 587.517 -27.4373 587.615 -28.652 587.43C-29.8701 587.242 -31.0044 586.986 -32.0549 586.659C-33.1088 586.33 -34.6622 585.812 -36.7153 585.106C-38.7717 584.403 -40.332 584.417 -41.3962 585.15C-42.4637 585.884 -44.4363 587.471 -47.314 589.908C-50.1882 592.346 -52.0171 594.024 -52.8007 594.944C-53.5843 595.861 -54.0325 596.368 -54.1454 596.464C-54.2618 596.558 -54.3918 596.641 -54.5355 596.713C-54.6792 596.785 -54.8349 596.844 -55.0026 596.889C-55.1668 596.937 -55.3362 596.97 -55.5107 596.986C-55.6886 597.003 -55.8631 597.004 -56.0342 596.99C-56.2122 596.978 -56.385 596.95 -56.5526 596.907C-56.7169 596.866 -56.8725 596.811 -57.0197 596.741C-57.1702 596.672 -57.3054 596.591 -57.4252 596.5C-57.5449 596.409 -57.6459 596.308 -57.728 596.198C-57.8135 596.089 -57.8785 595.974 -57.923 595.852C-57.9709 595.732 -57.9966 595.609 -58 595.484C-58 595.364 -57.9812 595.243 -57.9435 595.12C-57.9025 594.998 -57.8426 594.882 -57.7639 594.771C-57.6818 594.661 -57.6407 594.605 -57.6407 594.605Z" fill="#E9B902"/>
<path d="M-57.6407 594.605C-57.6407 594.605 -57.1873 594.174 -56.2806 593.312C-55.3738 592.452 -53.391 590.786 -50.332 588.312C-47.2764 585.836 -44.8093 584.17 -42.9308 583.313C-41.0523 582.453 -38.823 582.371 -36.2431 583.068C-33.6631 583.762 -31.8445 584.242 -30.7871 584.508C-29.7264 584.775 -28.818 584.791 -28.0618 584.555C-27.3021 584.32 -26.4895 583.844 -25.6238 583.129C-24.7615 582.416 -23.6871 581.533 -22.4005 580.481C-21.1174 579.429 -20.0379 578.61 -19.1619 578.024C-18.2859 577.441 -17.487 577.007 -16.765 576.724C-16.0396 576.443 -15.1619 576.262 -14.132 576.18C-13.0986 576.099 -11.9746 576.259 -10.7599 576.663C-9.54177 577.064 -8.6179 577.517 -7.98831 578.021C-7.35872 578.523 -6.81295 579.005 -6.35102 579.469C-5.88909 579.93 -5.31424 580.481 -4.62648 581.122C-3.93871 581.764 -3.23555 582.462 -2.51699 583.219C-1.80186 583.975 -1.08843 584.526 -0.376717 584.872C0.331577 585.218 1.46074 584.757 3.01078 583.489C4.56081 582.221 5.99279 581.227 7.30673 580.506C8.62409 579.786 9.59586 579.194 10.222 578.731C10.8448 578.269 11.4727 577.807 12.1057 577.344C12.7387 576.88 13.3632 576.424 13.9791 575.975C14.595 575.526 15.2468 575.102 15.9346 574.703C16.6189 574.305 17.6266 573.85 18.9576 573.338C20.2887 572.824 21.9602 572.896 23.9722 573.554C25.9841 574.215 27.4332 574.73 28.3195 575.1C29.2057 575.472 30.6702 576.361 32.7129 577.769C34.7557 579.176 36.2236 580.111 37.1167 580.575C38.0097 581.038 38.9182 581.221 39.842 581.122C40.7659 581.026 41.5409 580.845 42.1671 580.578C42.7933 580.312 43.6367 579.871 44.6975 579.256C45.7616 578.642 46.6033 578.154 47.2227 577.794C47.842 577.431 48.4819 577.082 49.1422 576.746C49.8026 576.41 50.5828 576.014 51.4827 575.561C52.386 575.107 53.3424 574.759 54.3518 574.516C55.3612 574.273 56.516 574.239 57.8163 574.411C59.1165 574.582 60.1003 574.837 60.7675 575.175C61.4382 575.516 62.0678 575.959 62.6563 576.504C63.2482 577.052 63.8881 577.76 64.5759 578.63C65.2671 579.497 65.8744 580.371 66.3979 581.252C66.918 582.133 67.38 582.938 67.7837 583.666C68.1841 584.393 68.7469 584.567 69.4723 584.188C70.2012 583.808 71.0737 583.264 72.09 582.556C73.1062 581.85 73.9137 581.268 74.5125 580.809C75.1147 580.35 75.8384 579.856 76.6836 579.325C77.5322 578.794 78.2439 578.356 78.8187 578.01C79.3901 577.662 80.2045 577.267 81.2618 576.825C82.3191 576.381 83.592 576.103 85.0805 575.993C86.5655 575.882 87.7254 575.938 88.5603 576.159C89.3918 576.382 90.1771 576.671 90.9162 577.027C91.6518 577.382 92.3345 577.782 92.9641 578.226C93.5971 578.67 94.2438 579.152 94.9042 579.671C95.5612 580.189 96.9435 580.135 99.0513 579.509C101.159 578.882 102.961 578.418 104.456 578.118C105.948 577.816 107.029 577.538 107.7 577.286C108.37 577.034 109.154 576.739 110.05 576.4C110.947 576.064 111.951 575.78 113.063 575.55C114.179 575.322 114.889 575.208 115.193 575.208C115.501 575.21 115.801 575.245 116.091 575.312C116.382 575.382 116.651 575.483 116.897 575.615C117.14 575.747 117.347 575.902 117.518 576.079C117.689 576.259 117.816 576.453 117.898 576.659C117.98 576.868 118.013 577.08 117.996 577.293C117.975 577.509 117.908 577.717 117.795 577.916C117.679 578.118 117.522 578.301 117.323 578.464C117.125 578.627 116.894 578.764 116.63 578.875C116.363 578.985 116.081 579.063 115.783 579.109C115.482 579.154 115.18 579.165 114.875 579.141C114.567 579.117 114.274 579.06 113.997 578.968C113.72 578.877 113.47 578.757 113.248 578.608C113.026 578.459 112.842 578.29 112.699 578.1C112.555 577.908 112.459 577.706 112.411 577.495C112.363 577.281 112.363 577.069 112.411 576.857C112.463 576.644 112.562 576.442 112.709 576.252C112.853 576.063 113.036 575.893 113.258 575.744C113.484 575.598 113.736 575.479 114.013 575.388C114.293 575.299 114.586 575.242 114.89 575.218C115.198 575.197 115.501 575.209 115.799 575.254C116.1 575.302 116.382 575.383 116.646 575.496C116.909 575.606 117.138 575.744 117.333 575.91C117.532 576.073 117.688 576.256 117.801 576.458C117.913 576.659 117.978 576.867 117.996 577.081C118.009 577.297 117.975 577.508 117.893 577.715C117.811 577.924 117.682 578.117 117.508 578.295C117.333 578.472 117.125 578.626 116.882 578.756C116.635 578.885 116.367 578.985 116.076 579.055C115.785 579.122 115.64 579.156 115.64 579.156C115.64 579.156 115.277 579.201 114.552 579.292C113.826 579.381 113.043 579.535 112.201 579.754C111.359 579.972 110.519 580.216 109.681 580.485C108.846 580.756 107.73 581.122 106.334 581.583C104.942 582.045 102.593 582.68 99.2874 583.489C95.982 584.301 93.7853 584.512 92.6972 584.123C91.6056 583.734 90.7725 583.29 90.1976 582.79C89.6194 582.291 88.9829 581.808 88.2883 581.342C87.5937 580.874 86.7913 580.593 85.8811 580.499C84.9744 580.406 84.1275 580.565 83.3405 580.978C82.5535 581.391 81.8367 581.836 81.19 582.311C80.5433 582.787 79.9256 583.28 79.3371 583.792C78.7486 584.306 78.1515 584.81 77.5459 585.305C76.9402 585.802 76.1549 586.364 75.19 586.99C74.2285 587.62 73.3594 588.143 72.5827 588.561C71.8025 588.981 70.9882 589.302 70.1396 589.523C69.291 589.746 68.4544 589.834 67.6297 589.786C66.8051 589.738 66.0677 589.568 65.4176 589.278C64.7641 588.99 64.2098 588.598 63.7547 588.103C63.2962 587.609 62.8445 587.01 62.3997 586.306C61.9548 585.602 61.5391 584.872 61.1525 584.116C60.7658 583.357 60.3586 582.61 59.9309 581.875C59.5032 581.14 58.942 580.41 58.2474 579.685C57.5528 578.962 56.8206 578.592 56.0507 578.576C55.2842 578.561 54.321 578.819 53.161 579.35C52.0045 579.881 51.1029 580.319 50.4562 580.665C49.8129 581.008 49.1388 581.366 48.434 581.738C47.7291 582.113 47.043 582.448 46.3758 582.743C45.712 583.039 44.8805 583.355 43.8814 583.691C42.8857 584.029 41.8352 584.248 40.73 584.346C39.6248 584.445 38.5657 584.363 37.5529 584.101C36.5435 583.84 35.505 583.441 34.4375 582.905C33.3665 582.372 31.8746 581.52 29.9619 580.348C28.0491 579.178 26.6976 578.422 25.9072 578.079C25.1167 577.735 24.1912 577.351 23.1304 576.926C22.0697 576.501 21.038 576.546 20.0355 577.063C19.0329 577.579 18.2169 578.052 17.5873 578.482C16.9577 578.914 16.3229 579.351 15.6831 579.793C15.0398 580.237 14.3623 580.712 13.6506 581.216C12.9389 581.723 12.0013 582.406 10.8379 583.266C9.67113 584.125 7.66088 585.39 4.80717 587.059C1.95005 588.725 0.0749512 589.549 -0.818115 589.53C-1.71118 589.508 -2.68979 589.244 -3.75394 588.737C-4.8181 588.233 -5.75564 587.597 -6.56659 586.828C-7.38095 586.06 -8.10122 585.326 -8.7274 584.627C-9.35015 583.926 -10.0122 583.231 -10.7137 582.542C-11.4117 581.855 -12.2346 581.283 -13.1825 580.827C-14.1303 580.368 -14.9754 580.325 -15.7179 580.697C-16.4605 581.07 -17.1927 581.551 -17.9147 582.142C-18.6367 582.735 -19.2526 583.263 -19.7624 583.727C-20.2722 584.188 -21.0524 584.777 -22.1029 585.495C-23.1533 586.213 -24.2038 586.761 -25.2542 587.138C-26.3047 587.517 -27.4373 587.615 -28.652 587.43C-29.8701 587.242 -31.0044 586.986 -32.0549 586.659C-33.1088 586.33 -34.6622 585.812 -36.7153 585.106C-38.7717 584.403 -40.332 584.417 -41.3962 585.15C-42.4637 585.884 -44.4363 587.471 -47.314 589.908C-50.1882 592.346 -52.0171 594.024 -52.8007 594.944C-53.5843 595.861 -54.0325 596.368 -54.1454 596.464C-54.2618 596.558 -54.3918 596.641 -54.5355 596.713C-54.6792 596.785 -54.8349 596.844 -55.0026 596.889C-55.1668 596.937 -55.3362 596.97 -55.5107 596.986C-55.6886 597.003 -55.8631 597.004 -56.0342 596.99C-56.2122 596.978 -56.385 596.95 -56.5526 596.907C-56.7169 596.866 -56.8725 596.811 -57.0197 596.741C-57.1702 596.672 -57.3054 596.591 -57.4252 596.5C-57.5449 596.409 -57.6459 596.308 -57.728 596.198C-57.8135 596.089 -57.8785 595.974 -57.923 595.852C-57.9709 595.732 -57.9966 595.609 -58 595.484C-58 595.364 -57.9812 595.243 -57.9435 595.12C-57.9025 594.998 -57.8426 594.882 -57.7639 594.771C-57.6818 594.661 -57.6407 594.605 -57.6407 594.605Z" stroke="white" stroke-width="12" mask="url(#path-2-outside-2_188_4814)"/>
<circle cx="720" cy="429" r="499.5" stroke="#303030" stroke-dasharray="20 20"/>
<path d="M378.738 335.4V357H366.578V335.4L346.258 299.56H359.378L373.058 324.28L386.978 299.56H399.218L378.738 335.4ZM412.512 357.8C400.112 357.8 390.832 348.04 390.832 335.64C390.832 323.16 400.112 313.48 412.512 313.48C424.912 313.48 434.192 323.16 434.192 335.64C434.192 348.04 424.912 357.8 412.512 357.8ZM412.512 347.96C418.032 347.96 422.752 343.56 422.752 335.64C422.752 327.72 418.032 323.4 412.512 323.4C406.992 323.4 402.272 327.72 402.272 335.64C402.272 343.56 406.992 347.96 412.512 347.96ZM464.088 339V314.28H475.128V357H464.968V351.4C462.648 355.16 457.928 357.8 452.488 357.8C443.928 357.8 437.688 352.6 437.688 341.48V314.28H448.808V339.32C448.808 345.32 451.768 347.96 456.248 347.96C460.248 347.96 464.088 344.76 464.088 339ZM506.558 333.72V357H495.438V299.56H506.558V319.88C509.518 315.96 513.198 313.48 518.798 313.48C527.358 313.48 533.278 319.08 533.278 329.4V357H522.238V333.16C522.238 326.84 519.758 323.32 514.718 323.32C510.318 323.32 506.558 326.84 506.558 333.72ZM565.1 357V351.72C562.3 355.72 558.06 357.8 552.22 357.8C543.34 357.8 537.42 352.6 537.42 344.6C537.42 336.28 544.14 331.8 556.62 331.8C559.02 331.8 561.1 331.96 563.74 332.28V329.72C563.74 324.92 561.02 322.12 556.38 322.12C551.58 322.12 548.7 324.92 548.3 329.72H538.3C538.94 319.88 546.06 313.48 556.38 313.48C567.58 313.48 574.14 319.64 574.14 330.12V357H565.1ZM547.9 344.28C547.9 347.88 550.46 350.12 554.62 350.12C560.3 350.12 563.74 347 563.74 342.04V339C561.1 338.6 559.26 338.44 557.34 338.44C551.02 338.44 547.9 340.44 547.9 344.28ZM617.518 314.28L601.838 357H589.678L573.918 314.28H585.918L596.078 344.36L606.318 314.28H617.518ZM636.273 357.72C623.473 357.72 614.913 348.84 614.913 335.48C614.913 322.76 623.793 313.48 636.113 313.48C649.633 313.48 658.593 324.44 656.593 338.36H626.273C626.993 345.32 630.353 349.16 636.033 349.16C640.913 349.16 644.193 346.76 645.473 342.52H656.513C654.113 352.2 646.673 357.72 636.273 357.72ZM635.873 321.64C630.673 321.64 627.393 325 626.433 331.32H644.833C644.513 325.4 641.153 321.64 635.873 321.64ZM699.8 357V351.72C697 355.72 692.76 357.8 686.92 357.8C678.04 357.8 672.12 352.6 672.12 344.6C672.12 336.28 678.84 331.8 691.32 331.8C693.72 331.8 695.8 331.96 698.44 332.28V329.72C698.44 324.92 695.72 322.12 691.08 322.12C686.28 322.12 683.4 324.92 683 329.72H673C673.64 319.88 680.76 313.48 691.08 313.48C702.28 313.48 708.84 319.64 708.84 330.12V357H699.8ZM682.6 344.28C682.6 347.88 685.16 350.12 689.32 350.12C695 350.12 698.44 347 698.44 342.04V339C695.8 338.6 693.96 338.44 692.04 338.44C685.72 338.44 682.6 340.44 682.6 344.28ZM741.861 357H729.701V299.56H752.181C766.661 299.56 775.061 306.28 775.061 318.2C775.061 325.96 770.261 332.12 762.101 334.84L776.901 357H762.421L749.461 336.68H741.861V357ZM741.861 309.64V326.68H751.621C758.981 326.68 762.901 323.8 762.901 318.2C762.901 312.52 758.981 309.64 751.621 309.64H741.861ZM793.187 304.36C793.187 308.12 790.147 310.92 785.747 310.92C781.427 310.92 778.387 308.12 778.387 304.36C778.387 300.44 781.427 297.64 785.747 297.64C790.147 297.64 793.187 300.44 793.187 304.36ZM791.427 357H780.307V314.28H791.427V357ZM795.323 335.64C795.323 323 802.763 313.48 814.283 313.48C819.403 313.48 823.723 315.72 826.923 319.8V299.56H837.963V357H827.803V350.84C824.443 355.32 819.803 357.8 814.283 357.8C802.763 357.8 795.323 348.12 795.323 335.64ZM806.763 335.64C806.763 343.64 811.323 347.88 816.763 347.88C822.283 347.88 826.843 343.56 826.843 335.48C826.843 327.4 822.203 323.32 816.763 323.32C811.323 323.32 806.763 327.48 806.763 335.64ZM863.248 357.72C850.448 357.72 841.888 348.84 841.888 335.48C841.888 322.76 850.768 313.48 863.088 313.48C876.608 313.48 885.568 324.44 883.568 338.36H853.248C853.968 345.32 857.328 349.16 863.008 349.16C867.888 349.16 871.168 346.76 872.448 342.52H883.488C881.088 352.2 873.648 357.72 863.248 357.72ZM862.848 321.64C857.648 321.64 854.368 325 853.408 331.32H871.808C871.488 325.4 868.128 321.64 862.848 321.64ZM946.375 339.16C946.375 350.12 937.575 357.8 923.175 357.8C908.695 357.8 899.655 350.04 898.775 337.88H911.095C911.415 344.2 915.495 348.28 922.935 348.28C929.095 348.28 933.495 345.56 933.495 340.92C933.495 337.32 930.695 335.16 925.815 334.2L916.375 332.36C907.655 330.68 900.935 325.96 900.935 316.44C900.935 306.2 909.975 298.84 922.375 298.84C935.255 298.84 944.695 306.36 945.495 318.36H933.175C932.775 312.36 928.615 308.28 922.535 308.28C916.615 308.28 913.255 311.64 913.255 315.64C913.255 319.56 916.855 321.24 921.015 322.04L930.855 324.04C940.935 326.04 946.375 330.68 946.375 339.16ZM978.054 346.2V355.88C975.334 357.24 972.774 357.8 969.494 357.8C960.694 357.8 955.174 352.76 955.174 343.16V323.8H946.534V314.28H955.174V301.64H966.214V314.28H978.454V323.8H966.214V340.6C966.214 345.56 968.454 347.56 972.454 347.56C974.534 347.56 976.454 347.08 978.054 346.2ZM1020.52 314.28L999.724 372.44H987.644L993.724 356.52L976.924 314.28H988.924L999.644 343.56L1009.4 314.28H1020.52ZM1033.4 357H1022.2V299.56H1033.4V357ZM1058.74 357.72C1045.94 357.72 1037.38 348.84 1037.38 335.48C1037.38 322.76 1046.26 313.48 1058.58 313.48C1072.1 313.48 1081.06 324.44 1079.06 338.36H1048.74C1049.46 345.32 1052.82 349.16 1058.5 349.16C1063.38 349.16 1066.66 346.76 1067.94 342.52H1078.98C1076.58 352.2 1069.14 357.72 1058.74 357.72ZM1058.34 321.64C1053.14 321.64 1049.86 325 1048.9 331.32H1067.3C1066.98 325.4 1063.62 321.64 1058.34 321.64ZM1095.41 349.88C1095.41 354.28 1092.37 357.4 1087.97 357.4C1083.57 357.4 1080.45 354.28 1080.45 349.88C1080.45 345.4 1083.57 342.28 1087.97 342.28C1092.37 342.28 1095.41 345.4 1095.41 349.88ZM375.661 453H363.501V406.52H345.421V395.56H393.821V406.52H375.661V453ZM417.433 453V447.72C414.633 451.72 410.393 453.8 404.553 453.8C395.673 453.8 389.753 448.6 389.753 440.6C389.753 432.28 396.473 427.8 408.953 427.8C411.353 427.8 413.433 427.96 416.073 428.28V425.72C416.073 420.92 413.353 418.12 408.713 418.12C403.913 418.12 401.033 420.92 400.633 425.72H390.633C391.273 415.88 398.393 409.48 408.713 409.48C419.913 409.48 426.473 415.64 426.473 426.12V453H417.433ZM400.233 440.28C400.233 443.88 402.793 446.12 406.953 446.12C412.633 446.12 416.073 443 416.073 438.04V435C413.433 434.6 411.593 434.44 409.673 434.44C403.353 434.44 400.233 436.44 400.233 440.28ZM443.975 453H432.855V395.56H443.975V428.36L459.575 410.28H472.375L454.695 430.76L474.455 453H460.295L443.975 433.16V453ZM492.278 453.72C479.478 453.72 470.918 444.84 470.918 431.48C470.918 418.76 479.798 409.48 492.118 409.48C505.638 409.48 514.598 420.44 512.598 434.36H482.278C482.998 441.32 486.358 445.16 492.038 445.16C496.918 445.16 500.198 442.76 501.478 438.52H512.518C510.118 448.2 502.678 453.72 492.278 453.72ZM491.878 417.64C486.678 417.64 483.398 421 482.438 427.32H500.838C500.518 421.4 497.158 417.64 491.878 417.64ZM549.245 453.8C536.845 453.8 527.565 444.04 527.565 431.64C527.565 419.16 536.845 409.48 549.245 409.48C561.645 409.48 570.925 419.16 570.925 431.64C570.925 444.04 561.645 453.8 549.245 453.8ZM549.245 443.96C554.765 443.96 559.485 439.56 559.485 431.64C559.485 423.72 554.765 419.4 549.245 419.4C543.725 419.4 539.005 423.72 539.005 431.64C539.005 439.56 543.725 443.96 549.245 443.96ZM600.821 435V410.28H611.861V453H601.701V447.4C599.381 451.16 594.661 453.8 589.221 453.8C580.661 453.8 574.421 448.6 574.421 437.48V410.28H585.541V435.32C585.541 441.32 588.501 443.96 592.981 443.96C596.981 443.96 600.821 440.76 600.821 435ZM629.772 432.28V453H618.652V410.28H628.892V418.52C632.012 413.08 638.652 409.8 645.532 409.8V421.32C636.092 420.6 629.772 422.84 629.772 432.28ZM658.827 431.64C658.827 419.08 666.267 409.48 677.787 409.48C683.307 409.48 687.947 412.04 691.307 416.52V410.28H701.467V468.44H690.427V447.48C687.227 451.64 682.907 453.8 677.787 453.8C666.267 453.8 658.827 444.28 658.827 431.64ZM670.267 431.64C670.267 439.8 674.827 443.88 680.267 443.88C685.707 443.88 690.347 439.72 690.347 431.64C690.347 423.56 685.707 419.32 680.267 419.32C674.827 419.32 670.267 423.64 670.267 431.64ZM734.193 435V410.28H745.233V453H735.073V447.4C732.753 451.16 728.033 453.8 722.593 453.8C714.033 453.8 707.793 448.6 707.793 437.48V410.28H718.913V435.32C718.913 441.32 721.873 443.96 726.353 443.96C730.353 443.96 734.193 440.76 734.193 435ZM764.904 400.36C764.904 404.12 761.864 406.92 757.464 406.92C753.144 406.92 750.104 404.12 750.104 400.36C750.104 396.44 753.144 393.64 757.464 393.64C761.864 393.64 764.904 396.44 764.904 400.36ZM763.144 453H752.024V410.28H763.144V453ZM804.4 453H768V444.04L790 419.88H767.92V410.28H803.76V419.4L781.68 443.32H804.4V453ZM849.062 442.2V451.88C846.342 453.24 843.782 453.8 840.502 453.8C831.702 453.8 826.182 448.76 826.182 439.16V419.8H817.542V410.28H826.182V397.64H837.222V410.28H849.462V419.8H837.222V436.6C837.222 441.56 839.462 443.56 843.462 443.56C845.542 443.56 847.462 443.08 849.062 442.2ZM870.995 453.8C858.595 453.8 849.315 444.04 849.315 431.64C849.315 419.16 858.595 409.48 870.995 409.48C883.395 409.48 892.675 419.16 892.675 431.64C892.675 444.04 883.395 453.8 870.995 453.8ZM870.995 443.96C876.515 443.96 881.235 439.56 881.235 431.64C881.235 423.72 876.515 419.4 870.995 419.4C865.475 419.4 860.755 423.72 860.755 431.64C860.755 439.56 865.475 443.96 870.995 443.96ZM921.21 453H910.09V395.56H921.21V428.36L936.81 410.28H949.61L931.93 430.76L951.69 453H937.53L921.21 433.16V453ZM964.728 429.72V453H953.608V410.28H963.848V416.36C966.968 412.12 971.368 409.48 976.968 409.48C985.528 409.48 991.448 415.08 991.448 425.4V453H980.408V429.16C980.408 422.84 977.928 419.32 972.888 419.32C968.488 419.32 964.728 422.84 964.728 429.72ZM1016.71 453.8C1004.31 453.8 995.03 444.04 995.03 431.64C995.03 419.16 1004.31 409.48 1016.71 409.48C1029.11 409.48 1038.39 419.16 1038.39 431.64C1038.39 444.04 1029.11 453.8 1016.71 453.8ZM1016.71 443.96C1022.23 443.96 1026.95 439.56 1026.95 431.64C1026.95 423.72 1022.23 419.4 1016.71 419.4C1011.19 419.4 1006.47 423.72 1006.47 431.64C1006.47 439.56 1011.19 443.96 1016.71 443.96ZM1076.23 453L1068.15 425.24L1060.15 453H1049.03L1036.87 410.28H1047.67L1054.95 437.32L1062.79 410.28H1073.75L1081.35 437.32L1088.55 410.28H1099.51L1087.27 453H1076.23ZM500.09 506.28L479.29 564.44H467.21L473.29 548.52L456.49 506.28H468.49L479.21 535.56L488.97 506.28H500.09ZM519.165 549.8C506.765 549.8 497.485 540.04 497.485 527.64C497.485 515.16 506.765 505.48 519.165 505.48C531.565 505.48 540.845 515.16 540.845 527.64C540.845 540.04 531.565 549.8 519.165 549.8ZM519.165 539.96C524.685 539.96 529.405 535.56 529.405 527.64C529.405 519.72 524.685 515.4 519.165 515.4C513.645 515.4 508.925 519.72 508.925 527.64C508.925 535.56 513.645 539.96 519.165 539.96ZM570.741 531V506.28H581.781V549H571.621V543.4C569.301 547.16 564.581 549.8 559.141 549.8C550.581 549.8 544.341 544.6 544.341 533.48V506.28H555.461V531.32C555.461 537.32 558.421 539.96 562.901 539.96C566.901 539.96 570.741 536.76 570.741 531ZM599.692 528.28V549H588.572V506.28H598.812V514.52C601.932 509.08 608.572 505.8 615.452 505.8V517.32C606.012 516.6 599.692 518.84 599.692 528.28Z" fill="white"/>
<path d="M644.667 549H632.507V491.56H654.987C669.467 491.56 677.867 498.28 677.867 510.2C677.867 517.96 673.067 524.12 664.907 526.84L679.707 549H665.227L652.267 528.68H644.667V549ZM644.667 501.64V518.68H654.427C661.787 518.68 665.707 515.8 665.707 510.2C665.707 504.52 661.787 501.64 654.427 501.64H644.667ZM695.993 496.36C695.993 500.12 692.953 502.92 688.553 502.92C684.233 502.92 681.193 500.12 681.193 496.36C681.193 492.44 684.233 489.64 688.553 489.64C692.953 489.64 695.993 492.44 695.993 496.36ZM694.233 549H683.113V506.28H694.233V549ZM698.129 527.64C698.129 515 705.569 505.48 717.089 505.48C722.209 505.48 726.529 507.72 729.729 511.8V491.56H740.769V549H730.609V542.84C727.249 547.32 722.609 549.8 717.089 549.8C705.569 549.8 698.129 540.12 698.129 527.64ZM709.569 527.64C709.569 535.64 714.129 539.88 719.569 539.88C725.089 539.88 729.649 535.56 729.649 527.48C729.649 519.4 725.009 515.32 719.569 515.32C714.129 515.32 709.569 519.48 709.569 527.64ZM766.054 549.72C753.254 549.72 744.694 540.84 744.694 527.48C744.694 514.76 753.574 505.48 765.894 505.48C779.414 505.48 788.374 516.44 786.374 530.36H756.054C756.774 537.32 760.134 541.16 765.814 541.16C770.694 541.16 773.974 538.76 775.254 534.52H786.294C783.894 544.2 776.454 549.72 766.054 549.72ZM765.654 513.64C760.454 513.64 757.174 517 756.214 523.32H774.614C774.294 517.4 770.934 513.64 765.654 513.64ZM849.181 531.16C849.181 542.12 840.381 549.8 825.981 549.8C811.501 549.8 802.461 542.04 801.581 529.88H813.901C814.221 536.2 818.301 540.28 825.741 540.28C831.901 540.28 836.301 537.56 836.301 532.92C836.301 529.32 833.501 527.16 828.621 526.2L819.181 524.36C810.461 522.68 803.741 517.96 803.741 508.44C803.741 498.2 812.781 490.84 825.181 490.84C838.061 490.84 847.501 498.36 848.301 510.36H835.981C835.581 504.36 831.421 500.28 825.341 500.28C819.421 500.28 816.061 503.64 816.061 507.64C816.061 511.56 819.661 513.24 823.821 514.04L833.661 516.04C843.741 518.04 849.181 522.68 849.181 531.16ZM880.861 538.2V547.88C878.141 549.24 875.581 549.8 872.301 549.8C863.501 549.8 857.981 544.76 857.981 535.16V515.8H849.341V506.28H857.981V493.64H869.021V506.28H881.261V515.8H869.021V532.6C869.021 537.56 871.261 539.56 875.261 539.56C877.341 539.56 879.261 539.08 880.861 538.2ZM923.331 506.28L902.531 564.44H890.451L896.531 548.52L879.731 506.28H891.731L902.451 535.56L912.211 506.28H923.331ZM936.21 549H925.01V491.56H936.21V549ZM961.542 549.72C948.742 549.72 940.182 540.84 940.182 527.48C940.182 514.76 949.062 505.48 961.382 505.48C974.902 505.48 983.862 516.44 981.862 530.36H951.542C952.262 537.32 955.622 541.16 961.302 541.16C966.182 541.16 969.462 538.76 970.742 534.52H981.782C979.382 544.2 971.942 549.72 961.542 549.72ZM961.142 513.64C955.942 513.64 952.662 517 951.702 523.32H970.102C969.782 517.4 966.422 513.64 961.142 513.64Z" fill="#1B1B1B"/>
<rect x="629" y="477" width="378" height="96" rx="4" fill="#FFC727"/>
<path d="M657.199 556H645.039V498.56H667.519C681.999 498.56 690.399 505.28 690.399 517.2C690.399 524.96 685.599 531.12 677.439 533.84L692.239 556H677.759L664.799 535.68H657.199V556ZM657.199 508.64V525.68H666.959C674.319 525.68 678.239 522.8 678.239 517.2C678.239 511.52 674.319 508.64 666.959 508.64H657.199ZM708.524 503.36C708.524 507.12 705.484 509.92 701.084 509.92C696.764 509.92 693.724 507.12 693.724 503.36C693.724 499.44 696.764 496.64 701.084 496.64C705.484 496.64 708.524 499.44 708.524 503.36ZM706.764 556H695.644V513.28H706.764V556ZM710.66 534.64C710.66 522 718.1 512.48 729.62 512.48C734.74 512.48 739.06 514.72 742.26 518.8V498.56H753.3V556H743.14V549.84C739.78 554.32 735.14 556.8 729.62 556.8C718.1 556.8 710.66 547.12 710.66 534.64ZM722.1 534.64C722.1 542.64 726.66 546.88 732.1 546.88C737.62 546.88 742.18 542.56 742.18 534.48C742.18 526.4 737.54 522.32 732.1 522.32C726.66 522.32 722.1 526.48 722.1 534.64ZM778.586 556.72C765.786 556.72 757.226 547.84 757.226 534.48C757.226 521.76 766.106 512.48 778.426 512.48C791.946 512.48 800.906 523.44 798.906 537.36H768.586C769.306 544.32 772.666 548.16 778.346 548.16C783.226 548.16 786.506 545.76 787.786 541.52H798.826C796.426 551.2 788.986 556.72 778.586 556.72ZM778.186 520.64C772.986 520.64 769.706 524 768.746 530.32H787.146C786.826 524.4 783.466 520.64 778.186 520.64ZM861.712 538.16C861.712 549.12 852.912 556.8 838.512 556.8C824.032 556.8 814.992 549.04 814.112 536.88H826.432C826.752 543.2 830.832 547.28 838.272 547.28C844.432 547.28 848.832 544.56 848.832 539.92C848.832 536.32 846.032 534.16 841.152 533.2L831.712 531.36C822.992 529.68 816.272 524.96 816.272 515.44C816.272 505.2 825.312 497.84 837.712 497.84C850.592 497.84 860.032 505.36 860.832 517.36H848.512C848.112 511.36 843.952 507.28 837.872 507.28C831.952 507.28 828.592 510.64 828.592 514.64C828.592 518.56 832.192 520.24 836.352 521.04L846.192 523.04C856.272 525.04 861.712 529.68 861.712 538.16ZM893.392 545.2V554.88C890.672 556.24 888.112 556.8 884.832 556.8C876.032 556.8 870.512 551.76 870.512 542.16V522.8H861.872V513.28H870.512V500.64H881.552V513.28H893.792V522.8H881.552V539.6C881.552 544.56 883.792 546.56 887.792 546.56C889.872 546.56 891.792 546.08 893.392 545.2ZM935.862 513.28L915.062 571.44H902.982L909.062 555.52L892.262 513.28H904.262L914.982 542.56L924.742 513.28H935.862ZM948.741 556H937.541V498.56H948.741V556ZM974.073 556.72C961.273 556.72 952.713 547.84 952.713 534.48C952.713 521.76 961.593 512.48 973.913 512.48C987.433 512.48 996.393 523.44 994.393 537.36H964.073C964.793 544.32 968.153 548.16 973.833 548.16C978.713 548.16 981.993 545.76 983.273 541.52H994.313C991.913 551.2 984.473 556.72 974.073 556.72ZM973.673 520.64C968.473 520.64 965.193 524 964.233 530.32H982.633C982.313 524.4 978.953 520.64 973.673 520.64Z" fill="white"/>
<rect x="597.5" y="200.5" width="245" height="37" rx="18.5" fill="#202020"/>
<rect x="597.5" y="200.5" width="245" height="37" rx="18.5" stroke="#2C2C2C"/>
<rect x="605" y="208" width="51" height="22" rx="11" fill="#FFC727"/>
<path d="M619.776 223.68C617.292 223.68 615.336 221.796 615.336 219.18C615.336 216.564 617.292 214.704 619.776 214.704C622.272 214.704 624.228 216.564 624.228 219.18C624.228 220.836 623.448 222.204 622.236 222.972L623.676 225.684H621.408L620.304 223.656C620.124 223.668 619.956 223.68 619.776 223.68ZM619.776 221.652C621.132 221.652 621.888 220.536 621.888 219.18C621.888 217.824 621.132 216.732 619.776 216.732C618.42 216.732 617.664 217.824 617.664 219.18C617.664 220.536 618.42 221.652 619.776 221.652ZM632.855 214.884V220.068C632.855 222.156 631.547 223.68 629.123 223.68C626.675 223.68 625.379 222.156 625.379 220.068V214.884H627.646V220.104C627.646 221.004 627.971 221.652 629.123 221.652C630.263 221.652 630.587 221.004 630.587 220.104V214.884H632.855ZM636.776 223.5H634.508V214.884H636.776V223.5ZM645.141 223.5H638.121V221.688L642.237 216.84H638.073V214.884H645.021V216.732L640.881 221.544H645.141V223.5Z" fill="#EDE9E9"/>
<path d="M669.008 225H667.248V213.512H671.536C674.176 213.512 675.76 214.808 675.76 217.096C675.76 218.744 674.72 220.008 672.976 220.424L676.096 225H673.984L671.12 220.68H669.008V225ZM669.008 214.984V219.208H671.424C673.056 219.208 673.984 218.488 673.984 217.096C673.984 215.72 673.056 214.984 671.424 214.984H669.008ZM679.635 214.552C679.635 215.16 679.155 215.624 678.467 215.624C677.779 215.624 677.283 215.16 677.283 214.552C677.283 213.928 677.779 213.48 678.467 213.48C679.155 213.48 679.635 213.928 679.635 214.552ZM679.283 225H677.667V216.52H679.283V225ZM680.918 220.76C680.918 218.184 682.39 216.36 684.678 216.36C685.814 216.36 686.806 216.936 687.398 217.976V213.512H689.014V225H687.51V223.48C686.902 224.552 685.878 225.16 684.678 225.16C682.39 225.16 680.918 223.304 680.918 220.76ZM682.598 220.76C682.598 222.648 683.59 223.72 684.998 223.72C686.374 223.72 687.398 222.6 687.398 220.728C687.398 218.824 686.342 217.784 684.998 217.784C683.59 217.784 682.598 218.84 682.598 220.76ZM694.749 225.16C692.301 225.16 690.653 223.384 690.653 220.712C690.653 218.2 692.365 216.36 694.701 216.36C697.229 216.36 698.909 218.408 698.621 221.16H692.301C692.429 222.888 693.293 223.896 694.717 223.896C695.917 223.896 696.749 223.24 697.021 222.136H698.621C698.205 224.024 696.749 225.16 694.749 225.16ZM694.669 217.576C693.373 217.576 692.493 218.504 692.317 220.088H696.909C696.829 218.52 695.981 217.576 694.669 217.576ZM707.795 221H705.571V225H703.811V213.512H707.795C710.371 213.512 712.035 214.824 712.035 217.224C712.035 219.64 710.371 221 707.795 221ZM707.779 215H705.571V219.512H707.779C709.331 219.512 710.275 218.664 710.275 217.24C710.275 215.816 709.331 215 707.779 215ZM716.999 225.16C714.551 225.16 712.903 223.384 712.903 220.712C712.903 218.2 714.615 216.36 716.951 216.36C719.479 216.36 721.159 218.408 720.871 221.16H714.551C714.679 222.888 715.543 223.896 716.967 223.896C718.167 223.896 718.999 223.24 719.271 222.136H720.871C720.455 224.024 718.999 225.16 716.999 225.16ZM716.919 217.576C715.623 217.576 714.743 218.504 714.567 220.088H719.159C719.079 218.52 718.231 217.576 716.919 217.576ZM724.205 220.664V225H722.589V216.52H724.093V218.312C724.685 217.144 725.965 216.408 727.357 216.408V218.088C725.533 217.992 724.205 218.792 724.205 220.664ZM735.356 222.472C735.356 224.136 734.06 225.16 731.804 225.16C729.564 225.16 728.236 224.056 728.076 222.232H729.628C729.692 223.288 730.54 223.944 731.836 223.944C732.972 223.944 733.724 223.544 733.724 222.744C733.724 222.04 733.292 221.736 732.236 221.528L730.86 221.272C729.292 220.968 728.412 220.168 728.412 218.888C728.412 217.4 729.708 216.36 731.676 216.36C733.708 216.36 735.084 217.448 735.228 219.192H733.676C733.58 218.168 732.828 217.576 731.692 217.576C730.668 217.576 729.98 218.008 729.98 218.744C729.98 219.432 730.412 219.752 731.436 219.944L732.876 220.216C734.556 220.52 735.356 221.256 735.356 222.472ZM740.672 225.16C738.272 225.16 736.512 223.272 736.512 220.76C736.512 218.248 738.272 216.36 740.672 216.36C743.072 216.36 744.832 218.248 744.832 220.76C744.832 223.272 743.072 225.16 740.672 225.16ZM740.672 223.736C742.064 223.736 743.168 222.616 743.168 220.76C743.168 218.904 742.064 217.8 740.672 217.8C739.28 217.8 738.192 218.904 738.192 220.76C738.192 222.616 739.28 223.736 740.672 223.736ZM748.095 220.216V225H746.479V216.52H747.983V217.928C748.559 216.984 749.519 216.36 750.687 216.36C752.431 216.36 753.583 217.48 753.583 219.512V225H751.967V220.056C751.967 218.6 751.327 217.784 750.127 217.784C749.023 217.784 748.095 218.712 748.095 220.216ZM760.865 225V223.688C760.337 224.632 759.393 225.16 758.145 225.16C756.385 225.16 755.233 224.152 755.233 222.6C755.233 220.936 756.561 220.072 759.089 220.072C759.585 220.072 759.985 220.088 760.673 220.168V219.544C760.673 218.328 760.017 217.64 758.897 217.64C757.713 217.64 756.993 218.344 756.945 219.528H755.473C755.553 217.624 756.913 216.36 758.897 216.36C760.993 216.36 762.209 217.544 762.209 219.56V225H760.865ZM756.769 222.552C756.769 223.432 757.425 224.008 758.465 224.008C759.825 224.008 760.673 223.16 760.673 221.864V221.176C760.049 221.096 759.601 221.08 759.185 221.08C757.569 221.08 756.769 221.56 756.769 222.552ZM766.002 225H764.37V213.512H766.002V225ZM770.213 214.552C770.213 215.16 769.733 215.624 769.045 215.624C768.357 215.624 767.861 215.16 767.861 214.552C767.861 213.928 768.357 213.48 769.045 213.48C769.733 213.48 770.213 213.928 770.213 214.552ZM769.861 225H768.245V216.52H769.861V225ZM776.888 223.432V224.856C776.392 225.08 775.96 225.16 775.448 225.16C773.88 225.16 772.792 224.312 772.792 222.44V217.896H770.92V216.52H772.792V214.008H774.408V216.52H776.968V217.896H774.408V222.072C774.408 223.24 774.968 223.656 775.832 223.656C776.216 223.656 776.552 223.592 776.888 223.432ZM785.551 216.52L781.311 228.088H779.551L780.767 224.888L777.423 216.52H779.167L781.631 222.984L783.919 216.52H785.551ZM798.57 221.64C798.57 223.64 796.97 225.16 794.186 225.16C791.418 225.16 789.738 223.64 789.594 221.352H791.386C791.466 222.808 792.394 223.752 794.154 223.752C795.61 223.752 796.698 223.064 796.698 221.88C796.698 220.92 796.074 220.44 794.746 220.152L793.082 219.832C791.466 219.512 789.994 218.696 789.994 216.744C789.994 214.808 791.69 213.352 794.074 213.352C796.458 213.352 798.266 214.808 798.41 217.096H796.618C796.522 215.72 795.53 214.76 794.09 214.76C792.602 214.76 791.786 215.64 791.786 216.632C791.786 217.72 792.73 218.104 793.802 218.328L795.498 218.664C797.466 219.064 798.57 219.928 798.57 221.64ZM805.295 223.432V224.856C804.799 225.08 804.367 225.16 803.855 225.16C802.287 225.16 801.199 224.312 801.199 222.44V217.896H799.327V216.52H801.199V214.008H802.815V216.52H805.375V217.896H802.815V222.072C802.815 223.24 803.375 223.656 804.239 223.656C804.623 223.656 804.959 223.592 805.295 223.432ZM813.957 216.52L809.717 228.088H807.957L809.173 224.888L805.829 216.52H807.573L810.037 222.984L812.325 216.52H813.957ZM816.736 225H815.104V213.512H816.736V225ZM822.467 225.16C820.019 225.16 818.371 223.384 818.371 220.712C818.371 218.2 820.083 216.36 822.419 216.36C824.947 216.36 826.627 218.408 826.339 221.16H820.019C820.147 222.888 821.011 223.896 822.435 223.896C823.635 223.896 824.467 223.24 824.739 222.136H826.339C825.923 224.024 824.467 225.16 822.467 225.16ZM822.387 217.576C821.091 217.576 820.211 218.504 820.035 220.088H824.627C824.547 218.52 823.699 217.576 822.387 217.576Z" fill="#EDE9E9"/>
<path d="M328.885 60.1767L326 50.0682L323.115 60.1767L312.453 97.5363L274.768 88.09L264.571 85.5341L271.883 93.0867L298.906 121L271.883 148.913L264.571 156.466L274.768 153.91L312.453 144.464L323.115 181.823L326 191.932L328.885 181.823L339.547 144.464L377.232 153.91L387.429 156.466L380.117 148.913L353.094 121L380.117 93.0867L387.429 85.5341L377.232 88.09L339.547 97.5363L328.885 60.1767Z" fill="#5CC73B" stroke="white" stroke-width="6"/>
<path d="M1141.75 717.25V720.25H1144.75H1207.25H1210.25V717.25V704.75V701.75H1207.25H1185.25V687.702C1189.86 686.368 1194.04 684.215 1197.79 681.244C1201.75 678.102 1204.78 674.231 1206.85 669.666C1214.63 668.364 1221.24 664.692 1226.59 658.706C1232.35 652.267 1235.25 644.652 1235.25 636V617.25V614.25H1232.25H1210.25V604.75V601.75H1207.25H1144.75H1141.75V604.75V614.25H1119.75H1116.75V617.25L1116.75 636L1116.75 636.002C1116.75 644.656 1119.66 652.27 1125.41 658.705C1130.75 664.689 1137.37 668.361 1145.15 669.666C1147.22 674.235 1150.26 678.106 1154.22 681.245C1157.96 684.211 1162.15 686.363 1166.75 687.7V701.75H1144.75H1141.75V704.75V717.25ZM1135.25 632.75H1141.75V648.593C1140.36 647.601 1139.16 646.389 1138.12 644.952C1136.2 642.289 1135.25 639.335 1135.25 636V632.75ZM1213.88 644.946C1212.84 646.382 1211.64 647.595 1210.25 648.588V632.75H1216.75V636C1216.75 639.331 1215.8 642.282 1213.88 644.946Z" fill="#206AFF" stroke="white" stroke-width="6"/>
<path d="M650 641C650 636.582 653.582 633 658 633H783C787.418 633 791 636.582 791 641V676C791 680.418 787.418 684 783 684H658C653.582 684 650 680.418 650 676V641Z" fill="white"/>
<path d="M672.32 665H669.888V655.704H666.272V653.512H675.952V655.704H672.32V665ZM681.314 665V663.944C680.754 664.744 679.906 665.16 678.738 665.16C676.962 665.16 675.778 664.12 675.778 662.52C675.778 660.856 677.122 659.96 679.618 659.96C680.098 659.96 680.514 659.992 681.042 660.056V659.544C681.042 658.584 680.498 658.024 679.57 658.024C678.61 658.024 678.034 658.584 677.954 659.544H675.954C676.082 657.576 677.506 656.296 679.57 656.296C681.81 656.296 683.122 657.528 683.122 659.624V665H681.314ZM677.874 662.456C677.874 663.176 678.386 663.624 679.218 663.624C680.354 663.624 681.042 663 681.042 662.008V661.4C680.514 661.32 680.146 661.288 679.762 661.288C678.498 661.288 677.874 661.688 677.874 662.456ZM687.263 665H685.039V653.512H687.263V660.072L690.383 656.456H692.943L689.407 660.552L693.359 665H690.527L687.263 661.032V665ZM697.563 665.144C695.003 665.144 693.291 663.368 693.291 660.696C693.291 658.152 695.067 656.296 697.531 656.296C700.235 656.296 702.027 658.488 701.627 661.272H695.563C695.707 662.664 696.379 663.432 697.515 663.432C698.491 663.432 699.147 662.952 699.403 662.104H701.611C701.131 664.04 699.643 665.144 697.563 665.144ZM697.483 657.928C696.443 657.928 695.787 658.6 695.595 659.864H699.275C699.211 658.68 698.539 657.928 697.483 657.928ZM714.157 656.456L709.997 668.088H707.581L708.797 664.904L705.437 656.456H707.837L709.981 662.312L711.933 656.456H714.157ZM718.612 665.16C716.132 665.16 714.276 663.208 714.276 660.728C714.276 658.232 716.132 656.296 718.612 656.296C721.092 656.296 722.948 658.232 722.948 660.728C722.948 663.208 721.092 665.16 718.612 665.16ZM718.612 663.192C719.716 663.192 720.66 662.312 720.66 660.728C720.66 659.144 719.716 658.28 718.612 658.28C717.508 658.28 716.564 659.144 716.564 660.728C716.564 662.312 717.508 663.192 718.612 663.192ZM729.567 661.4V656.456H731.775V665H729.743V663.88C729.279 664.632 728.335 665.16 727.247 665.16C725.535 665.16 724.287 664.12 724.287 661.896V656.456H726.511V661.464C726.511 662.664 727.103 663.192 727.999 663.192C728.799 663.192 729.567 662.552 729.567 661.4ZM735.997 660.856V665H733.773V656.456H735.821V658.104C736.445 657.016 737.773 656.36 739.149 656.36V658.664C737.261 658.52 735.997 658.968 735.997 660.856ZM743.088 660.728C743.088 658.216 744.576 656.296 746.88 656.296C747.984 656.296 748.912 656.808 749.584 657.704V656.456H751.616V668.088H749.408V663.896C748.768 664.728 747.904 665.16 746.88 665.16C744.576 665.16 743.088 663.256 743.088 660.728ZM745.376 660.728C745.376 662.36 746.288 663.176 747.376 663.176C748.464 663.176 749.392 662.344 749.392 660.728C749.392 659.112 748.464 658.264 747.376 658.264C746.288 658.264 745.376 659.128 745.376 660.728ZM758.801 661.4V656.456H761.009V665H758.977V663.88C758.513 664.632 757.569 665.16 756.481 665.16C754.769 665.16 753.521 664.12 753.521 661.896V656.456H755.745V661.464C755.745 662.664 756.337 663.192 757.233 663.192C758.033 663.192 758.801 662.552 758.801 661.4ZM765.584 654.472C765.584 655.224 764.976 655.784 764.096 655.784C763.232 655.784 762.624 655.224 762.624 654.472C762.624 653.688 763.232 653.128 764.096 653.128C764.976 653.128 765.584 653.688 765.584 654.472ZM765.232 665H763.008V656.456H765.232V665ZM774.123 665H766.843V663.208L771.243 658.376H766.827V656.456H773.995V658.28L769.579 663.064H774.123V665Z" fill="black"/>
</g>
<defs>
<clipPath id="clip0_188_4814">
<rect width="1440" height="858" fill="white"/>
</clipPath>
</defs>
</svg>
